<?xml version="1.0" standalone="no"?>
<!DOCTYPE svg PUBLIC "-//W3C//DTD SVG 20010904//EN"
 "http://www.w3.org/TR/2001/REC-SVG-20010904/DTD/svg10.dtd">
<svg version="1.0" xmlns="http://www.w3.org/2000/svg"
 width="1836.000000pt" height="1836.000000pt" viewBox="0 0 1836.000000 1836.000000"
 preserveAspectRatio="xMidYMid meet">

<g transform="translate(0.000000,1836.000000) scale(0.100000,-0.100000)"
fill="#000000" stroke="none">
<path d="M7783 16055 c2 -65 1 -66 -58 -51 -14 4 -25 2 -25 -4 0 -5 8 -10 18
-10 35 -1 65 -28 82 -74 16 -42 17 -46 2 -46 -9 0 -25 11 -37 25 -11 13 -33
27 -50 30 -29 6 -29 6 -11 -9 11 -9 28 -16 38 -16 10 0 18 -7 18 -16 0 -8 7
-22 15 -30 34 -34 1 -34 -74 0 -19 9 -25 8 -29 -3 -2 -7 -13 -22 -22 -31 -20
-20 -15 -36 6 -19 9 7 25 7 53 -1 43 -11 60 -27 39 -35 -9 -4 -12 -26 -11 -81
2 -86 -3 -91 -62 -71 -27 9 -41 21 -45 36 -5 22 -6 22 -21 4 -9 -10 -19 -26
-22 -35 -4 -11 -12 -15 -21 -12 -20 8 -19 73 1 96 17 19 35 88 24 88 -4 0 -22
-20 -40 -45 -18 -25 -36 -45 -40 -45 -5 0 -12 -32 -16 -72 -7 -72 -7 -72 -24
-49 -13 16 -20 20 -25 12 -4 -7 -4 -17 1 -24 9 -12 33 -86 33 -102 0 -5 -9 0
-20 10 -10 9 -26 15 -35 12 -21 -9 -54 29 -48 56 11 53 -17 -14 -37 -88 -16
-58 -18 -85 -11 -106 5 -15 7 -30 4 -33 -4 -3 1 -6 10 -6 18 0 23 -33 11 -64
-7 -19 -34 -22 -34 -4 0 7 -16 -3 -35 -22 -19 -19 -35 -42 -35 -51 0 -9 -12
-24 -26 -34 -20 -13 -24 -22 -19 -44 5 -23 2 -29 -14 -34 -22 -5 -30 -50 -11
-62 15 -9 12 -25 -5 -25 -8 0 -15 -6 -15 -12 -1 -29 -28 26 -35 68 -5 33 -3
50 7 62 9 11 12 28 8 47 l-6 30 -21 -40 c-32 -63 -38 -102 -18 -132 11 -15 19
-53 22 -92 4 -58 3 -64 -10 -48 -8 9 -20 17 -26 17 -7 0 -32 22 -56 48 -126
137 -225 334 -225 449 0 36 -4 52 -11 48 -15 -10 -4 -90 28 -199 25 -88 71
-174 121 -228 25 -27 21 -35 -12 -22 -25 9 -123 136 -145 186 -16 39 -23 45
-45 43 -33 -4 -34 13 -1 21 34 9 33 36 -1 32 -68 -8 -83 -153 -28 -266 27 -55
138 -182 160 -182 6 0 17 -7 24 -15 13 -15 5 -20 -27 -16 -6 1 -14 -3 -17 -8
-3 -5 -14 -7 -24 -4 -10 2 -26 -5 -36 -16 -11 -12 -32 -21 -47 -21 -18 0 -32
-7 -39 -20 -13 -25 -30 -25 -84 -1 -23 11 -76 29 -116 40 -41 11 -91 25 -110
30 -42 13 -70 14 -70 2 0 -5 19 -11 42 -15 45 -7 110 -26 198 -58 30 -11 63
-22 73 -25 22 -7 21 -15 -1 -44 -20 -26 -39 -124 -22 -114 6 3 10 13 10 21 0
8 7 17 15 20 8 4 15 13 15 21 0 21 33 60 47 56 6 -2 20 5 31 17 16 18 26 20
58 14 22 -4 48 -13 58 -20 17 -12 13 -13 -37 -11 -48 3 -59 0 -71 -17 -8 -12
-31 -39 -50 -60 -20 -22 -36 -43 -36 -48 0 -4 -14 -15 -31 -23 -20 -11 -28
-21 -25 -33 3 -9 -3 -42 -13 -72 -17 -52 -20 -55 -54 -58 -21 -2 -37 -1 -37 3
0 11 63 75 74 75 6 0 12 11 12 25 2 27 -11 34 -20 10 -3 -8 -15 -15 -26 -15
-15 0 -26 -12 -40 -45 -11 -25 -23 -45 -27 -45 -122 -7 -238 -24 -316 -46 -31
-9 -77 -55 -77 -77 1 -20 3 -19 31 11 34 38 95 63 142 59 23 -2 32 -8 31 -20
-2 -18 17 -21 51 -8 19 8 19 8 0 19 -18 10 -16 11 16 12 31 0 37 -4 41 -25 6
-32 4 -33 -68 -41 -32 -4 -69 -13 -83 -21 -15 -7 -33 -13 -41 -13 -9 0 -21 -5
-27 -11 -9 -9 -18 -8 -38 5 -15 10 -29 16 -31 13 -3 -2 7 -24 20 -48 16 -28
23 -52 19 -67 -7 -29 23 -65 48 -57 10 3 26 1 36 -5 10 -5 30 -14 46 -20 27
-10 38 -30 15 -30 -9 0 -9 -3 0 -12 9 -9 15 -8 25 5 11 16 15 17 48 3 27 -11
39 -12 47 -4 9 9 15 9 24 0 7 -7 26 -12 43 -12 29 -1 29 -1 10 -16 -11 -8 -33
-18 -48 -21 -36 -7 -29 -28 9 -28 16 -1 34 -4 40 -8 14 -8 49 17 49 35 0 7 10
14 23 16 25 4 30 -15 7 -24 -11 -5 -13 -10 -5 -19 8 -10 0 -17 -39 -30 -28 -9
-55 -14 -61 -10 -6 4 -10 -6 -10 -23 0 -17 -13 -47 -32 -73 -45 -60 -68 -103
-68 -126 0 -29 -11 -35 -26 -15 -12 16 -13 16 -20 -1 -3 -10 -2 -23 4 -29 8
-8 7 -18 -2 -37 -7 -14 -16 -39 -20 -56 l-6 -30 25 28 25 28 0 -24 c0 -14 -7
-27 -15 -31 -12 -4 -15 -22 -14 -78 l1 -73 13 59 c7 32 17 61 22 65 6 3 16 23
22 43 7 21 18 41 25 45 16 11 58 93 47 93 -6 0 -19 -13 -31 -30 -12 -16 -26
-30 -31 -30 -19 0 -8 23 26 54 19 18 35 37 35 43 0 15 128 171 150 183 10 5
26 10 35 10 9 0 35 9 57 20 23 11 43 18 46 16 6 -6 -72 -102 -106 -131 -17
-14 -37 -25 -45 -25 -18 0 -117 -76 -117 -90 0 -20 24 -9 87 41 36 28 67 48
70 45 8 -8 -32 -67 -71 -105 -20 -19 -36 -39 -36 -44 0 -7 -33 -54 -93 -131
-29 -38 -54 -89 -62 -129 -4 -17 -11 -36 -15 -42 -4 -5 -13 -46 -20 -90 -9
-61 -9 -80 0 -83 6 -2 20 -18 30 -35 l19 -31 11 28 c5 15 8 31 6 35 -8 13 15
154 30 184 8 15 22 31 30 34 8 3 24 24 36 47 11 22 33 57 48 76 15 19 34 49
43 65 13 24 16 26 16 10 0 -11 -6 -29 -14 -39 -19 -25 -19 -47 -2 -40 25 9
-10 -136 -58 -241 l-14 -30 0 29 c-1 29 5 52 41 154 21 61 21 62 9 62 -17 0
-51 -67 -51 -101 0 -19 -6 -56 -14 -84 -13 -52 -11 -79 6 -69 6 4 8 -5 6 -22
-2 -18 -8 -28 -17 -26 -10 2 -12 -3 -6 -20 13 -44 24 -113 24 -164 1 -35 7
-59 21 -77 11 -14 20 -35 20 -47 0 -11 5 -41 11 -65 8 -30 8 -62 2 -100 -6
-30 -7 -55 -3 -55 10 0 40 64 40 85 0 31 24 9 32 -30 5 -22 15 -46 23 -55 17
-19 20 -40 5 -40 -5 0 -10 -7 -10 -16 0 -10 6 -14 14 -11 16 6 26 -12 26 -47
0 -12 14 -44 31 -70 16 -27 37 -67 46 -90 8 -22 21 -55 29 -72 8 -18 19 -56
25 -85 6 -30 17 -84 25 -121 9 -37 19 -105 24 -150 5 -46 14 -99 20 -118 6
-19 20 -68 31 -109 11 -40 30 -87 43 -105 13 -17 36 -56 51 -86 15 -30 39 -69
52 -87 20 -25 22 -36 14 -52 -7 -12 -8 -28 -2 -43 8 -22 9 -21 16 12 7 33 8
34 16 12 5 -13 7 -28 4 -32 -6 -10 21 -153 34 -178 5 -10 12 -63 15 -117 3
-54 10 -103 16 -109 5 -5 10 -16 10 -23 0 -25 70 -111 103 -126 110 -52 144
-56 132 -17 -9 29 4 80 21 80 11 0 12 4 2 19 -9 15 -9 23 2 36 19 23 32 6 42
-57 22 -132 19 -285 -11 -483 -18 -125 -107 -337 -199 -476 -59 -89 -64 -94
-122 -109 -25 -6 -105 -32 -178 -56 -74 -24 -138 -44 -143 -44 -25 0 -224
-107 -288 -155 -40 -30 -92 -60 -115 -66 -43 -11 -258 -93 -288 -110 -10 -5
-82 -34 -160 -64 -79 -31 -156 -62 -173 -69 -16 -8 -52 -22 -80 -32 -27 -10
-54 -21 -60 -24 -5 -4 -21 -11 -35 -15 -14 -4 -53 -21 -87 -36 -33 -16 -64
-29 -67 -29 -10 0 -212 -100 -257 -127 -25 -15 -90 -54 -145 -86 -54 -32 -121
-72 -149 -89 -96 -59 -281 -161 -390 -214 -105 -51 -315 -195 -315 -215 0 -5
-25 -21 -55 -36 -112 -52 -213 -168 -390 -443 -23 -36 -55 -92 -72 -125 -16
-33 -43 -80 -58 -105 -16 -25 -38 -62 -48 -82 -11 -21 -23 -38 -27 -38 -4 0
-13 -12 -19 -27 -6 -16 -15 -36 -21 -45 -5 -10 -15 -26 -20 -35 -6 -10 -20
-36 -31 -58 -11 -22 -31 -58 -44 -80 -13 -22 -29 -51 -35 -65 -6 -14 -22 -48
-36 -77 -21 -45 -52 -125 -92 -238 -24 -66 -51 -174 -61 -240 -28 -187 -64
-524 -82 -773 -30 -413 -33 -490 -19 -630 6 -70 14 -174 16 -232 2 -58 6 -143
9 -190 3 -47 10 -220 15 -385 6 -165 14 -376 20 -470 14 -238 11 -860 -5 -935
-3 -14 -9 -88 -14 -166 -10 -152 -11 -158 -79 -242 -36 -46 -42 -60 -42 -102
0 -52 6 -67 64 -153 l39 -58 -13 -57 c-7 -31 -18 -64 -25 -72 -7 -8 -23 -42
-35 -75 -19 -51 -23 -81 -24 -195 l-1 -135 33 -45 c59 -83 66 -106 54 -184
-10 -65 -14 -72 -66 -125 -49 -50 -56 -61 -56 -97 0 -26 11 -62 31 -100 28
-53 31 -68 30 -144 0 -66 -6 -100 -25 -153 -15 -37 -26 -87 -26 -111 0 -44 32
-159 50 -181 6 -7 15 -73 20 -146 5 -74 14 -188 20 -254 5 -66 10 -128 10
-137 0 -17 205 -18 4155 -18 l4155 0 0 59 c0 80 -32 290 -70 461 -4 19 -24 82
-44 140 -21 58 -44 125 -53 150 -8 25 -25 65 -38 90 -12 25 -28 62 -35 83 -12
37 -11 38 36 94 59 69 104 134 104 151 0 8 6 12 13 10 15 -5 64 -145 73 -208
11 -79 36 -184 48 -205 7 -11 18 -47 25 -80 8 -33 22 -86 32 -118 l19 -59 -23
-19 c-12 -10 -25 -18 -29 -19 -13 0 -9 -66 7 -133 41 -178 56 -252 61 -321 l7
-76 783 0 784 0 1 78 c1 42 4 190 8 327 5 171 4 254 -3 264 -7 9 -12 89 -12
205 -3 310 -30 658 -83 1076 -35 267 -38 285 -72 444 -12 58 -12 59 14 78 31
22 34 49 12 101 -8 20 -15 49 -15 64 0 15 -9 42 -19 60 -26 42 -37 103 -22
113 10 5 9 25 -2 84 -8 42 -19 82 -25 89 -6 6 -20 41 -32 77 -12 36 -40 102
-61 146 l-40 82 9 181 c9 173 6 238 -18 437 -6 44 -10 111 -10 150 -1 38 -8
96 -16 129 -9 33 -18 119 -20 190 -2 72 -11 154 -19 184 -24 90 -30 235 -11
326 8 44 22 118 31 165 8 47 22 117 30 155 10 44 21 196 30 410 8 187 20 390
25 451 6 61 10 165 8 230 -2 65 1 200 6 299 7 152 6 197 -8 290 -35 222 -67
348 -153 605 -80 240 -143 412 -154 424 -5 6 -9 16 -9 23 0 8 -17 44 -38 81
-20 37 -46 87 -57 112 -19 43 -70 125 -104 164 -30 35 -120 96 -170 116 -27
10 -139 63 -248 117 -204 101 -247 121 -393 180 -501 203 -848 352 -1043 447
-40 20 -76 36 -80 36 -6 0 -166 74 -302 141 -91 45 -207 108 -224 123 -27 22
-50 26 -65 11 -8 -8 -24 -15 -35 -15 -27 0 -27 -20 -1 -27 22 -6 27 -23 7 -23
-17 0 -59 44 -50 53 3 4 19 7 35 7 15 0 28 4 28 10 0 10 -48 24 -112 33 -37 6
-38 5 -36 -26 0 -18 -3 -57 -7 -89 l-8 -56 39 -25 c110 -72 166 -156 239 -362
28 -77 38 -126 46 -215 12 -145 24 -213 43 -251 18 -35 8 -72 -23 -89 -16 -8
-22 -7 -31 9 -5 11 -10 30 -10 43 0 13 -6 32 -13 42 -12 16 -13 12 -12 -30 1
-27 5 -62 8 -79 7 -28 4 -32 -56 -67 -35 -20 -94 -46 -133 -58 -38 -12 -87
-27 -109 -34 -110 -36 -149 -43 -323 -54 -338 -21 -720 0 -882 48 -52 16 -131
38 -175 50 -94 26 -240 78 -316 113 -30 13 -81 35 -114 48 -70 27 -132 81
-185 159 -54 82 -54 80 -25 67 14 -7 28 -21 31 -32 9 -27 23 -39 69 -57 22 -9
41 -21 41 -27 1 -6 2 -15 3 -20 0 -5 13 -11 29 -13 15 -2 26 -8 24 -15 -1 -8
9 -13 27 -13 16 0 41 -4 55 -10 16 -6 26 -6 26 0 0 12 -35 31 -43 24 -7 -7
-58 26 -75 48 -7 10 -19 18 -25 18 -7 0 -18 9 -25 20 -7 11 -18 20 -25 20 -7
0 -23 17 -35 39 -12 21 -29 44 -37 51 -24 20 -18 33 13 27 15 -3 34 -2 42 3
11 7 9 11 -12 19 -36 13 -51 81 -17 81 5 0 7 -11 3 -24 -5 -21 -3 -23 19 -19
14 3 34 0 46 -6 25 -14 26 -8 5 24 -9 14 -23 25 -31 25 -30 0 -5 25 28 28 19
2 39 10 46 19 10 12 18 13 43 5 25 -9 32 -9 35 3 3 8 7 22 10 31 4 12 11 14
28 9 12 -4 37 -9 55 -12 22 -4 32 -11 32 -23 0 -10 6 -20 14 -23 8 -3 16 -16
18 -28 2 -17 13 -25 38 -32 42 -11 71 -35 68 -56 -2 -12 6 -16 33 -16 34 0 71
-19 66 -33 -3 -12 27 -47 58 -66 29 -19 89 -31 80 -16 -8 13 27 22 39 10 7 -7
6 -10 -4 -10 -9 0 -5 -9 10 -25 24 -25 60 -34 60 -15 0 6 10 2 22 -10 30 -27
58 -26 58 3 0 32 -11 68 -19 63 -4 -3 -12 -1 -19 3 -9 6 -7 15 10 37 28 34 27
30 3 47 -16 13 -17 17 -6 31 11 13 10 21 -8 49 -11 19 -18 37 -14 40 15 15 34
5 48 -25 14 -31 15 -11 1 23 -5 11 -1 18 13 22 12 3 21 12 21 21 0 18 -26 22
-32 5 -2 -7 -18 -4 -43 10 -32 17 -35 21 -17 21 12 0 22 5 22 11 0 7 11 8 31
4 22 -5 29 -4 25 4 -4 6 -11 9 -16 6 -5 -3 -14 3 -19 14 -14 26 -14 31 4 31 8
0 15 7 15 15 0 8 5 15 12 15 7 0 3 9 -9 21 -16 16 -25 19 -38 11 -22 -12 -57
-4 -52 12 2 6 17 11 33 10 16 0 34 6 40 15 10 13 15 11 36 -14 27 -31 56 -28
38 5 -11 21 -3 50 14 50 6 0 19 -12 28 -27 15 -25 16 -25 22 -6 7 22 42 37 52
22 3 -5 15 -9 26 -9 20 0 20 -1 -3 -21 -19 -17 -21 -22 -9 -29 9 -6 20 -4 30
5 13 11 19 11 40 -1 l25 -14 -22 -6 c-43 -12 -23 -24 38 -24 60 0 60 0 58 -28
-5 -40 9 -57 29 -38 10 8 29 17 43 21 16 4 29 15 32 28 3 12 9 32 12 45 5 16
3 22 -8 22 -20 0 -26 20 -20 67 4 31 2 41 -11 46 -13 5 -15 2 -10 -18 8 -34
-18 -34 -36 0 -13 24 -50 35 -50 15 0 -5 -7 -10 -16 -10 -8 0 -13 3 -11 8 9
15 -13 52 -31 52 -18 0 -42 18 -42 32 0 4 22 7 49 6 41 -2 46 -4 35 -16 -20
-19 -17 -32 6 -32 13 0 24 10 30 25 8 22 15 25 46 22 20 -3 40 -11 45 -18 6
-11 11 -11 21 -1 6 6 20 12 29 12 10 0 21 9 24 21 5 16 12 19 28 14 12 -4 37
-7 55 -6 22 1 32 -4 32 -14 0 -8 5 -15 10 -15 6 0 10 3 10 8 0 4 14 15 31 25
25 14 29 20 20 31 -10 12 -6 16 19 21 29 6 31 9 25 37 -4 16 -8 48 -9 70 -1
21 -8 43 -16 48 -8 5 -15 23 -16 39 -1 17 3 28 8 25 5 -3 17 0 26 8 33 26 60
37 79 32 13 -4 23 0 26 10 4 9 13 16 22 16 16 0 20 15 6 24 -5 4 -11 1 -13 -6
-4 -10 -10 -10 -32 0 -38 17 -31 45 14 53 36 6 139 56 152 74 4 5 11 6 15 1 4
-5 2 -11 -4 -13 -7 -3 -13 -14 -13 -26 0 -21 0 -21 18 -1 9 10 36 45 60 76 24
31 49 59 57 61 7 3 60 11 117 17 63 8 144 26 208 47 58 19 128 38 155 43 78
13 167 50 198 83 34 37 34 49 -3 70 -16 10 -30 25 -30 33 0 22 -55 74 -78 74
-11 0 -25 -7 -32 -15 -17 -21 -27 -19 -52 10 -12 14 -31 25 -43 25 -12 0 -30
9 -40 20 -16 18 -20 19 -27 5 -11 -19 -38 -20 -38 -1 0 8 -2 20 -3 28 -2 7 -2
10 0 6 6 -10 63 52 63 68 0 8 -11 14 -25 14 -14 0 -32 8 -41 19 -15 17 -18 17
-34 3 -10 -8 -16 -21 -13 -28 4 -10 -4 -14 -27 -14 -28 0 -30 2 -16 15 8 8 19
15 25 15 6 0 11 12 11 26 0 20 4 25 16 20 14 -5 15 -4 4 9 -18 22 2 44 24 26
11 -9 22 -7 52 9 31 18 41 20 60 10 12 -7 34 -10 48 -6 16 4 44 -2 81 -19 59
-26 86 -23 99 10 3 9 11 13 17 10 6 -4 23 4 37 18 15 14 39 30 54 36 24 9 26
14 21 47 -5 31 -2 39 18 54 l23 18 -44 12 c-25 7 -76 14 -113 15 -42 2 -75 9
-85 18 -9 8 -27 18 -39 21 -13 4 -23 12 -23 17 0 13 74 11 88 -3 8 -8 12 -8
12 -1 0 17 48 22 61 7 15 -18 29 -18 29 1 0 8 -7 15 -15 15 -8 0 -15 5 -15 11
0 6 9 8 20 4 26 -8 26 7 -1 24 -15 9 -24 10 -28 2 -4 -6 -19 -10 -34 -9 l-28
2 23 18 c13 10 31 18 40 18 9 0 20 5 23 10 3 6 17 10 29 10 13 0 29 7 36 15
17 21 90 19 116 -3 11 -9 26 -30 32 -45 10 -24 17 -28 44 -25 30 3 32 6 48 73
31 126 31 144 7 156 -11 7 -22 8 -24 3 -2 -5 -12 -24 -24 -43 -18 -30 -22 -32
-36 -19 -12 12 -13 20 -4 36 9 17 6 26 -15 51 -25 30 -29 31 -103 30 -62 -2
-87 3 -138 25 -60 25 -64 25 -115 12 -29 -8 -64 -18 -78 -24 -14 -5 -53 -13
-87 -17 -69 -8 -76 2 -35 43 22 22 25 22 48 7 18 -11 24 -12 24 -3 0 25 16 37
54 43 23 4 43 2 52 -5 11 -10 19 -9 39 4 14 9 25 13 26 9 0 -5 8 17 18 47 15
45 16 56 5 58 -16 4 -19 22 -4 22 6 0 10 8 10 18 1 23 42 71 47 55 3 -7 13
-13 23 -13 26 0 36 -21 17 -32 -19 -10 -12 -38 9 -38 8 0 14 8 14 19 0 10 9
21 20 24 23 6 39 39 22 45 -22 7 -13 33 16 45 34 15 80 45 110 71 16 14 22 31
22 59 0 36 -3 40 -40 54 -22 9 -42 24 -45 34 -4 10 -17 27 -31 38 -13 10 -24
21 -24 24 0 16 -63 97 -76 97 -8 0 -14 9 -14 20 0 11 -12 27 -27 37 -42 25
-83 65 -83 80 0 22 38 15 42 -7 2 -12 8 -19 13 -18 6 2 9 10 7 18 -2 8 -3 24
-3 35 1 11 1 32 2 48 0 15 2 27 5 27 3 0 16 -12 29 -27 13 -16 27 -25 31 -21
4 5 0 16 -9 26 -10 10 -17 35 -17 55 0 19 -7 43 -16 51 -14 14 -13 18 8 40 15
17 36 26 62 28 33 2 42 -2 66 -32 16 -19 45 -66 66 -105 20 -38 51 -96 68
-127 17 -31 44 -80 59 -109 16 -28 35 -81 42 -118 8 -36 21 -71 30 -77 9 -7
15 -27 15 -50 0 -21 5 -46 10 -54 7 -11 10 -2 10 33 0 45 1 47 30 47 16 0 51
-7 77 -17 68 -23 187 -21 244 4 85 38 145 134 192 313 14 52 29 115 32 140 13
88 43 189 64 216 11 15 21 33 21 40 0 7 9 18 20 24 21 11 27 54 9 65 -5 4 -14
17 -19 29 -12 32 -131 86 -275 124 -72 19 -350 21 -430 2 -73 -17 -195 -31
-235 -28 -30 3 -25 5 30 15 36 7 98 19 139 27 41 8 115 17 163 21 74 6 87 9
77 21 -6 8 -18 14 -25 14 -8 0 -14 7 -14 15 0 8 -9 15 -20 15 -11 0 -20 5 -20
10 0 6 -12 10 -26 10 -16 0 -34 11 -49 29 -27 31 -26 31 -198 12 -63 -7 -91
-1 -67 14 17 11 11 35 -9 35 -11 0 -22 4 -26 10 -6 10 -36 2 -47 -14 -13 -19
-8 -36 10 -36 15 0 18 -6 15 -32 -9 -69 -43 -100 -43 -39 0 16 -7 45 -16 66
-8 21 -13 44 -10 52 6 14 -14 13 -92 -3 -13 -3 -21 -1 -19 3 3 5 -1 17 -9 28
-12 16 -17 17 -23 7 -7 -11 -10 -10 -15 3 -10 26 -7 35 9 35 21 0 19 21 -3 26
-9 3 -23 17 -30 32 -12 25 -10 29 13 50 35 29 51 28 31 -2 l-16 -25 37 6 c26
4 34 3 29 -5 -4 -7 -13 -12 -21 -12 -8 0 -17 -5 -20 -10 -7 -12 35 -69 52 -69
15 -1 54 66 47 82 -3 8 2 20 11 27 8 7 15 11 16 9 0 -2 3 -13 6 -24 2 -11 5
-37 5 -57 1 -26 6 -38 16 -38 8 0 12 6 9 13 -7 18 10 57 26 57 8 0 22 -9 33
-21 15 -16 16 -24 6 -39 -7 -11 -12 -22 -12 -25 0 -11 37 -4 56 10 10 8 29 15
41 15 33 0 38 19 9 30 -25 9 -35 33 -17 44 4 3 21 1 37 -4 107 -33 114 -34
132 -17 15 16 17 16 28 -5 12 -22 13 -21 29 18 15 39 19 42 63 47 26 3 52 1
58 -4 7 -6 13 -56 16 -122 3 -78 9 -122 21 -144 9 -18 17 -45 17 -61 0 -21 6
-31 19 -35 31 -8 43 7 41 54 -3 60 -1 73 7 65 4 -3 6 -30 5 -59 -2 -48 -1 -51
13 -33 8 11 15 26 15 34 0 7 12 38 26 67 19 38 35 57 54 64 21 7 29 18 34 48
4 21 14 49 23 62 11 18 12 25 3 31 -9 5 -8 19 4 54 9 26 16 57 16 71 0 13 5
25 12 27 6 2 15 26 18 54 l7 49 1 -60 c1 -36 -6 -82 -18 -115 -22 -63 -24 -74
-10 -65 18 11 49 140 55 235 6 84 10 101 39 145 44 69 71 136 90 225 22 100
21 166 -1 179 -15 8 -15 13 -5 36 16 34 9 71 -34 204 -19 57 -34 109 -34 116
0 6 -8 19 -19 29 -10 9 -27 36 -37 59 -10 23 -24 48 -31 55 -7 7 -13 19 -13
26 0 8 -7 19 -15 26 -8 7 -15 20 -14 29 0 10 2 11 6 4 7 -18 23 -16 23 2 0 8
-6 15 -14 15 -8 0 -17 8 -20 18 -4 14 -5 14 -4 -3 1 -34 -2 -38 -17 -25 -8 7
-15 21 -15 32 0 11 -16 34 -35 52 -33 31 -35 38 -34 92 0 33 4 68 8 79 10 23
-15 79 -60 136 -16 20 -29 43 -29 50 -1 17 -30 57 -30 41 0 -20 -15 -14 -48
18 -29 27 -52 38 -52 25 0 -3 22 -34 49 -68 43 -54 81 -124 105 -192 11 -30
-4 -145 -19 -145 -8 0 -11 -14 -8 -47 3 -27 0 -59 -5 -73 l-9 -24 -12 21 c-13
25 -20 222 -8 226 14 4 -31 82 -78 132 -52 56 -69 85 -79 132 -9 38 -64 114
-119 163 -22 19 -55 57 -73 84 -18 27 -71 90 -116 140 -46 50 -94 106 -107
124 -13 18 -34 37 -47 42 -16 6 -24 17 -24 32 0 13 -10 34 -22 48 -13 14 -35
41 -49 60 -15 19 -55 65 -91 102 -51 54 -68 66 -86 61 -12 -3 -22 -1 -22 4 0
5 -6 10 -12 11 -7 1 -35 6 -63 12 -155 33 -241 21 -344 -45 -63 -41 -81 -60
-81 -87 0 -6 13 -8 35 -4 21 4 35 3 35 -3 0 -12 -52 -41 -74 -41 -11 0 -12 -4
-3 -24 7 -14 14 -23 16 -21 2 3 13 0 23 -6 14 -8 23 -8 31 0 8 8 6 11 -7 11
-24 0 -14 24 12 28 21 3 122 -55 122 -70 0 -18 -32 -6 -61 22 -18 16 -35 27
-40 24 -15 -9 -10 -22 10 -29 12 -3 18 -12 15 -20 -4 -9 6 -15 28 -20 47 -10
79 -32 72 -50 -4 -8 -1 -15 6 -15 6 0 8 -4 5 -10 -3 -5 -19 -7 -35 -3 -22 4
-31 1 -36 -11 -3 -9 -13 -16 -21 -16 -22 0 -73 39 -73 56 0 17 12 18 28 2 8
-8 12 -8 12 -1 0 6 -13 16 -30 23 -32 13 -40 30 -15 30 8 0 15 5 15 10 0 7
-21 8 -57 4 -32 -4 -80 -9 -107 -11 -33 -4 -58 -13 -75 -29 -14 -13 -35 -24
-46 -24 -35 0 -107 -61 -140 -117 -11 -18 -27 -33 -37 -33 -22 0 -38 37 -28
64 8 22 6 28 -50 184 -22 62 -43 126 -47 143 -3 16 -15 34 -26 40 -16 9 -18
18 -14 52 6 45 -13 98 -54 147 -20 24 -20 24 -14 3 8 -27 -2 -63 -17 -63 -5 0
-19 11 -29 24 -19 24 -107 81 -114 74 -2 -2 21 -23 51 -47 30 -23 62 -54 72
-69 9 -14 27 -36 39 -49 13 -12 23 -33 23 -45 0 -13 6 -33 14 -44 9 -13 11
-25 6 -34 -7 -11 -11 -8 -19 13 -6 16 -11 34 -11 40 0 23 -31 57 -51 57 -17 0
-19 -6 -16 -55 4 -53 -8 -74 -19 -37 -3 9 -10 25 -15 34 -5 10 -9 23 -9 30 0
7 -14 21 -30 30 -18 10 -30 25 -30 38 0 24 -25 27 -34 4 -5 -13 -14 -15 -41
-10 -43 8 -48 -13 -9 -39 20 -13 28 -14 34 -5 13 21 30 1 30 -33 -1 -30 -1
-31 -15 -13 -11 15 -15 16 -15 5 0 -8 4 -19 8 -25 16 -18 52 -119 57 -164 3
-25 8 -60 11 -78 4 -28 2 -33 -13 -32 -31 4 -36 0 -23 -15 15 -18 6 -45 -16
-45 -12 0 -15 6 -10 25 4 15 2 25 -5 25 -6 0 -8 11 -5 28 4 17 1 35 -8 47 -13
18 -15 17 -31 -20 l-17 -40 -15 23 c-19 27 -49 31 -38 5 4 -10 9 -26 12 -35 3
-9 11 -14 19 -11 17 6 17 3 4 -33 l-11 -27 -32 31 c-18 17 -36 31 -40 31 -5 0
-12 3 -15 7 -4 4 -1 4 6 0 8 -5 12 0 12 13 0 12 -4 21 -10 21 -10 0 -104 112
-157 187 -17 25 -46 60 -63 78 -24 25 -34 46 -40 86 -4 30 -8 47 -9 39 -4 -39
-18 -44 -57 -19 -22 13 -57 40 -79 60 -73 67 -149 119 -166 114 -10 -3 -34 12
-64 40 -27 25 -53 45 -57 45 -5 0 -8 12 -7 28 1 15 -5 43 -14 62 l-17 35 3
-60z m164 -188 c16 -9 20 -16 13 -27 -7 -12 -12 -11 -29 4 -36 32 -25 46 16
23z m82 -44 c17 -16 50 -44 72 -63 66 -56 120 -113 116 -124 -7 -22 -26 -14
-78 36 -30 29 -56 53 -59 53 -21 2 -71 33 -76 47 -3 10 -10 18 -15 18 -10 0
-12 43 -2 53 9 9 6 11 42 -20z m-69 -68 c25 -30 3 -25 -26 6 -22 24 -24 29 -8
21 11 -6 27 -18 34 -27z m-81 -61 c33 -25 63 -49 66 -54 3 -5 -15 -26 -39 -46
-41 -34 -43 -39 -28 -50 16 -12 15 -13 -8 -22 -19 -8 -32 -6 -55 9 -28 17 -30
22 -33 91 -3 85 3 118 22 118 8 0 41 -21 75 -46z m218 -37 c10 -10 51 -45 92
-80 19 -15 31 -31 27 -34 -3 -3 4 -21 15 -40 12 -19 19 -36 17 -38 -7 -8 -118
111 -118 126 0 5 -20 30 -44 56 -25 26 -42 52 -39 57 4 5 14 -2 25 -15 10 -13
21 -27 25 -32z m-557 -51 c0 -22 4 -25 33 -23 17 2 37 6 43 10 7 4 17 0 24 -8
7 -8 19 -15 26 -15 8 0 14 -7 14 -15 0 -8 -7 -15 -17 -15 -33 0 -3 -12 34 -13
35 -2 38 -4 38 -32 0 -25 -4 -30 -25 -30 -19 0 -24 4 -22 20 3 17 0 16 -23 -8
-42 -41 -52 -35 -60 33 -7 56 -9 60 -29 54 -11 -3 -27 -11 -34 -17 -17 -13
-20 -9 -28 41 -5 35 -4 42 10 42 10 0 16 -9 16 -24z m435 14 c3 -5 1 -10 -4
-10 -6 0 -11 5 -11 10 0 6 2 10 4 10 3 0 8 -4 11 -10z m2064 -22 c8 -11 32
-31 53 -44 42 -27 51 -50 16 -38 -13 3 -24 11 -26 15 -5 13 -32 11 -32 -2 0
-8 -5 -8 -15 1 -8 7 -15 23 -15 36 0 13 -4 24 -10 24 -5 0 -14 9 -21 21 -10
19 -9 20 13 14 12 -4 30 -16 37 -27z m-222 1 c72 -17 126 -41 161 -71 18 -15
32 -29 32 -32 0 -3 -18 -6 -40 -6 -22 0 -40 -4 -40 -10 0 -13 78 -50 105 -50
11 0 28 -9 38 -20 21 -24 22 -37 3 -21 -11 10 -25 9 -61 -3 -76 -26 -87 -23
-151 50 -33 37 -70 82 -83 100 -13 18 -32 36 -42 39 -22 7 -25 21 -6 28 20 8
34 8 84 -4z m-1522 -10 c11 -17 -1 -21 -15 -4 -8 9 -8 15 -2 15 6 0 14 -5 17
-11z m475 -31 c8 -18 15 -40 16 -48 0 -14 4 -25 25 -78 13 -34 11 -41 -11 -39
-16 1 -25 16 -40 67 -31 104 -35 130 -19 130 8 0 21 -15 29 -32z m110 -77 c0
-46 -17 -57 -24 -17 -4 20 -11 36 -16 36 -6 0 -10 12 -10 27 l0 26 25 -23 c14
-13 25 -35 25 -49z m-532 -20 c30 -34 50 -61 45 -61 -9 0 -97 88 -124 124 -34
45 28 -4 79 -63z m622 14 c0 -5 -5 -3 -10 5 -5 8 -10 20 -10 25 0 6 5 3 10 -5
5 -8 10 -19 10 -25z m-1365 -36 c4 -6 13 -8 21 -5 19 7 18 -8 -1 -24 -13 -11
-18 -10 -30 6 -8 10 -15 22 -15 27 0 11 18 9 25 -4z m680 -21 c25 -11 33 -32
16 -42 -5 -3 -11 3 -14 14 -3 13 -10 18 -21 14 -11 -4 -16 -1 -16 10 0 19 2
19 35 4z m655 -38 c0 -5 -9 -8 -20 -7 -20 1 -25 8 -14 20 8 7 34 -3 34 -13z
m911 1 c29 -14 57 -57 46 -68 -4 -4 -21 3 -37 15 -16 12 -34 22 -40 22 -5 0
-10 12 -10 26 0 14 3 24 8 22 4 -2 19 -10 33 -17z m-331 -32 c0 -5 -9 -9 -20
-9 -19 0 -26 11 -14 23 8 8 34 -3 34 -14z m-693 -21 c-3 -8 -6 -5 -6 6 -1 11
2 17 5 13 3 -3 4 -12 1 -19z m73 -182 c-7 -7 -10 19 -10 85 0 124 14 138 18
18 2 -54 -1 -96 -8 -103z m920 163 c0 -5 -4 -9 -10 -9 -5 0 -10 7 -10 16 0 8
5 12 10 9 6 -3 10 -10 10 -16z m-857 -36 c0 -53 -14 -123 -25 -123 -7 0 -9 18
-4 53 3 28 6 68 6 87 0 26 3 31 12 22 6 -6 11 -24 11 -39z m1274 -15 c-2 -13
-4 -3 -4 22 0 25 2 35 4 23 2 -13 2 -33 0 -45z m-1447 32 c0 -5 -9 -14 -20
-20 -22 -12 -27 -1 -8 18 14 14 28 16 28 2z m1070 -11 c0 -24 -23 -21 -28 4
-2 10 3 17 12 17 10 0 16 -9 16 -21z m-380 1 c0 -12 -43 -30 -77 -34 -13 -2
-31 -10 -41 -19 -23 -21 -32 -21 -32 -3 0 24 57 59 85 52 13 -3 27 -2 30 4 8
13 35 13 35 0z m468 -26 c-4 -3 -12 5 -18 18 -12 22 -12 22 6 6 10 -10 15 -20
12 -24z m-413 6 c3 -5 2 -10 -4 -10 -5 0 -13 5 -16 10 -3 6 -2 10 4 10 5 0 13
-4 16 -10z m140 0 c-3 -5 -10 -10 -16 -10 -5 0 -9 5 -9 10 0 6 7 10 16 10 8 0
12 -4 9 -10z m-79 -14 c16 -12 17 -17 6 -28 -11 -11 -16 -10 -28 6 -26 36 -14
48 22 22z m-918 -30 c31 -33 41 -56 24 -56 -14 0 -83 76 -76 83 12 12 18 8 52
-27z m1336 -8 c-7 -11 -40 8 -48 27 -5 14 -2 14 24 -1 16 -10 27 -21 24 -26z
m-309 -51 l37 -62 -32 30 c-28 27 -70 93 -70 111 0 16 31 -22 65 -79z m85 68
c7 -9 10 -18 7 -22 -8 -7 -37 15 -37 28 0 14 16 11 30 -6z m-1660 -23 c0 -9 9
-30 20 -47 11 -16 20 -39 20 -50 0 -17 -2 -17 -14 -5 -18 19 -57 116 -49 124
9 9 23 -4 23 -22z m1110 24 c0 -3 -4 -8 -10 -11 -5 -3 -10 -1 -10 4 0 6 5 11
10 11 6 0 10 -2 10 -4z m-1933 -33 c-9 -9 -19 -14 -22 -11 -3 3 2 13 11 22 9
9 19 14 22 11 3 -3 -2 -13 -11 -22z m1893 7 c0 -5 -7 -10 -15 -10 -8 0 -15 5
-15 10 0 6 7 10 15 10 8 0 15 -4 15 -10z m1216 -56 c-5 -12 45 -74 117 -147
45 -46 57 -72 67 -152 5 -46 4 -65 -8 -82 -14 -23 -42 -31 -42 -13 0 6 5 10
10 10 14 0 -8 42 -26 53 -8 4 -14 21 -14 37 0 16 -8 37 -19 47 -10 10 -26 34
-36 53 -34 68 -65 89 -65 45 0 -14 4 -25 9 -25 16 0 32 -60 21 -80 -6 -10 -10
-25 -9 -32 0 -7 5 -3 11 10 17 34 31 27 25 -13 -6 -38 -2 -42 22 -21 14 13 16
11 17 -20 1 -39 -23 -47 -43 -15 -7 11 -29 22 -55 26 -24 4 -51 11 -61 17 -16
8 -16 11 7 41 21 28 25 46 31 158 5 93 4 132 -5 150 -11 22 -10 21 19 -6 17
-16 29 -35 27 -41z m-1066 4 c0 -6 -6 -5 -15 2 -8 7 -15 14 -15 16 0 2 7 1 15
-2 8 -4 15 -11 15 -16z m900 -92 c0 -81 -14 -116 -47 -116 -16 0 -17 27 -1 32
8 3 12 26 11 68 -1 38 3 70 10 79 9 12 9 13 0 7 -14 -8 -19 25 -6 38 18 18 33
-32 33 -108z m65 68 c3 -25 4 -48 1 -52 -9 -9 -13 0 -19 51 -8 61 8 62 18 1z
m-3548 -12 c37 -79 107 -164 197 -237 47 -38 86 -74 86 -78 0 -19 -48 8 -95
54 -77 75 -107 64 -35 -12 48 -50 52 -68 10 -42 -53 34 -111 95 -105 110 3 11
1 13 -10 9 -11 -4 -17 3 -21 24 -4 16 -15 37 -25 46 -11 9 -19 24 -19 33 0 9
-7 34 -15 56 -31 88 -6 118 32 37z m665 -11 c2 -17 1 -28 -4 -25 -8 5 -12 54
-4 54 2 0 6 -13 8 -29z m1486 10 c10 -6 9 -10 -7 -14 -14 -3 -21 0 -21 9 0 16
9 18 28 5z m-208 -10 c0 -5 3 -16 6 -25 4 -10 1 -16 -9 -16 -17 0 -27 18 -19
38 5 14 22 16 22 3z m-1375 -41 c-3 -5 -10 -10 -16 -10 -5 0 -9 5 -9 10 0 6 7
10 16 10 8 0 12 -4 9 -10z m2755 -30 c0 -14 -14 -12 -28 2 -19 19 -14 30 8 18
11 -6 20 -15 20 -20z m-2670 -32 c0 -12 -7 -10 -24 8 -9 8 -13 20 -10 26 7 11
34 -17 34 -34z m-700 1 c0 -6 -4 -7 -10 -4 -5 3 -10 11 -10 16 0 6 5 7 10 4 6
-3 10 -11 10 -16z m3050 11 c0 -5 -2 -10 -4 -10 -3 0 -8 5 -11 10 -3 6 -1 10
4 10 6 0 11 -4 11 -10z m550 -34 c0 -19 -7 -39 -17 -47 -15 -13 -16 -11 -10
11 4 14 7 35 7 48 0 12 5 22 10 22 6 0 10 -15 10 -34z m-3090 16 c0 -13 -12
-22 -22 -16 -10 6 -1 24 13 24 5 0 9 -4 9 -8z m1170 -47 c14 -8 20 -14 13 -15
-7 0 -10 -6 -7 -14 10 -26 -11 -24 -43 4 -44 39 -18 57 37 25z m86 -62 c17
-17 17 -18 -4 -21 -12 -2 -20 -8 -17 -13 4 -5 0 -9 -8 -9 -8 0 -17 7 -21 15
-3 9 1 15 11 15 13 0 13 3 3 15 -19 22 13 20 36 -2z m2172 -26 c2 -15 -1 -27
-7 -27 -6 0 -11 6 -11 14 0 8 -3 22 -7 32 -4 12 -2 15 8 12 8 -2 15 -17 17
-31z m-2272 -11 c35 -18 70 -53 62 -62 -3 -3 -22 9 -41 25 -19 17 -41 31 -50
31 -8 0 -25 9 -38 20 l-24 19 30 -8 c17 -5 44 -16 61 -25z m-1146 14 c0 -5 -5
-10 -11 -10 -5 0 -7 5 -4 10 3 6 8 10 11 10 2 0 4 -4 4 -10z m2843 -15 c15
-10 17 -15 6 -15 -8 0 -23 6 -34 14 -11 7 -27 16 -35 19 -8 2 -2 3 13 1 16 -2
38 -11 50 -19z m625 -38 c2 -15 8 -27 13 -27 5 0 9 -10 9 -21 0 -19 -4 -20
-32 -15 -18 3 -39 7 -46 8 -8 1 -12 12 -10 27 2 14 7 25 13 23 5 -2 13 6 17
18 11 29 32 21 36 -13z m-3780 -100 c13 0 13 -28 -1 -29 -24 -1 -147 15 -143
19 11 12 73 21 101 16 17 -3 36 -5 43 -6z m-168 -17 c-20 -13 -40 -13 -40 0 0
6 12 10 28 10 21 0 24 -2 12 -10z m335 -30 c3 -6 -1 -7 -9 -4 -18 7 -21 14 -7
14 6 0 13 -4 16 -10z m-79 -25 c9 -8 25 -16 37 -16 13 -1 8 -4 -13 -8 -37 -8
-68 8 -56 28 9 15 15 14 32 -4z m-80 -37 c-3 -18 -5 -35 -5 -37 -1 -3 -6 0
-12 6 -13 13 -4 63 11 63 5 0 8 -15 6 -32z m3714 12 c0 -5 -4 -10 -10 -10 -5
0 -10 5 -10 10 0 6 5 10 10 10 6 0 10 -4 10 -10z m142 -14 c23 -13 44 -30 47
-37 3 -11 0 -11 -15 1 -30 23 -62 40 -79 40 -8 0 -15 5 -15 10 0 16 16 12 62
-14z m-3664 -45 c3 -32 3 -33 -30 -26 -67 15 -110 30 -111 40 -3 14 58 18 82
6 15 -8 20 -7 25 5 10 25 31 10 34 -25z m3615 -15 c15 -19 27 -41 27 -48 0 -8
4 -18 9 -23 4 -6 14 -32 20 -60 7 -27 17 -55 22 -61 15 -18 -7 -27 -31 -14
-20 11 -24 20 -21 52 1 9 -5 30 -13 47 -9 16 -16 40 -16 53 -1 29 -25 62 -40
53 -8 -5 -7 -11 2 -22 11 -13 9 -18 -10 -31 -12 -8 -22 -20 -22 -27 0 -7 -7
-15 -15 -19 -8 -3 -15 -1 -15 3 0 19 56 131 65 131 6 0 22 -16 38 -34z m-3842
14 c24 0 59 -35 59 -59 0 -24 3 -25 29 -9 10 6 25 9 32 6 19 -7 35 -5 32 5 -2
4 6 7 17 7 11 0 20 -4 20 -10 0 -5 -4 -10 -10 -10 -5 0 -10 -7 -10 -16 0 -14
-7 -15 -44 -10 -27 4 -47 3 -51 -4 -3 -5 -30 -10 -59 -10 -29 0 -67 -5 -85
-11 -39 -14 -115 -3 -88 12 9 6 17 14 17 19 0 5 19 29 43 54 30 33 48 44 62
41 11 -3 27 -5 36 -5z m3914 -90 c3 -5 1 -10 -4 -10 -6 0 -11 5 -11 10 0 6 2
10 4 10 3 0 8 -4 11 -10z m-2160 -30 c-3 -5 -13 -6 -21 -3 -12 4 -13 8 -3 14
15 9 32 2 24 -11z m-1654 -25 c1 -5 6 -16 12 -24 9 -12 9 -13 0 -7 -7 4 -13 3
-13 -3 0 -6 -18 -15 -40 -21 -21 -6 -42 -14 -44 -19 -8 -12 -63 -22 -81 -15
-8 4 -15 15 -15 25 0 18 -1 18 -20 -1 -34 -34 -57 -21 -41 23 7 17 22 28 54
37 25 6 49 10 54 7 5 -3 31 -2 59 2 58 10 75 9 75 -4z m3636 -7 c-3 -8 -6 -5
-6 6 -1 11 2 17 5 13 3 -3 4 -12 1 -19z m-3507 -3 c-7 -8 -19 -15 -27 -15 -13
0 -13 3 -3 15 7 8 19 15 27 15 13 0 13 -3 3 -15z m-601 -131 c46 -10 38 -24
-14 -24 -42 0 -54 7 -38 23 8 9 13 9 52 1z m4439 -32 c2 -18 -1 -32 -7 -32 -6
0 -11 6 -11 13 0 6 -3 23 -7 36 -4 18 -2 23 8 19 8 -2 15 -19 17 -36z m62 18
c0 -5 -4 -10 -10 -10 -5 0 -10 5 -10 10 0 6 5 10 10 10 6 0 10 -4 10 -10z
m-4182 -7 c-10 -2 -26 -2 -35 0 -10 3 -2 5 17 5 19 0 27 -2 18 -5z m3780 -94
c9 -91 6 -132 -12 -165 l-15 -29 -1 40 c0 22 -1 86 -3 142 -2 86 0 101 11 90
7 -8 16 -43 20 -78z m262 46 c0 -35 -13 -47 -23 -21 -7 18 3 56 14 56 5 0 9
-16 9 -35z m-4116 6 c3 -5 -13 -11 -36 -15 -31 -5 -45 -3 -57 9 -14 13 -10 15
36 15 29 0 54 -4 57 -9z m-282 -16 c-26 -19 -113 -31 -139 -20 -13 6 -2 11 42
20 33 7 73 13 90 14 29 1 29 1 7 -14z m76 -1 c13 -4 22 -14 22 -25 0 -15 -7
-19 -37 -19 -21 0 -48 -3 -60 -6 -33 -9 -28 7 10 33 38 25 36 24 65 17z m4530
0 c17 -3 33 -13 37 -22 5 -12 3 -13 -10 -2 -14 12 -20 9 -40 -16 -18 -22 -20
-30 -9 -32 19 -5 18 -52 -1 -52 -8 0 -15 7 -15 16 0 9 -7 22 -15 28 -12 9 -13
17 -3 49 12 40 12 40 56 31z m-545 -23 c2 -10 1 -25 -4 -32 -6 -10 -9 -4 -9
19 0 36 5 42 13 13z m434 -135 c-3 -18 -5 -17 -16 9 -7 17 -19 43 -27 59 -17
36 -18 73 -1 79 14 4 50 -114 44 -147z m-127 94 c0 -31 -16 -41 -26 -15 -5 13
11 45 22 45 2 0 4 -13 4 -30z m-4485 0 c-3 -5 -10 -10 -16 -10 -5 0 -9 5 -9
10 0 6 7 10 16 10 8 0 12 -4 9 -10z m4347 -7 c45 -54 76 -128 97 -238 5 -22
12 -53 16 -69 6 -21 5 -28 -5 -24 -7 2 -20 33 -30 68 -21 81 -34 106 -59 113
-25 6 -31 0 -31 -29 0 -32 -17 -39 -24 -9 -12 48 16 97 45 79 18 -11 8 34 -17
80 -25 45 -21 62 8 29z m432 -14 c29 -34 34 -59 11 -59 -10 0 -15 -10 -15 -30
0 -16 -4 -30 -10 -30 -6 0 -10 28 -10 63 0 36 -5 68 -12 75 -8 8 -9 12 -1 12
6 0 23 -14 37 -31z m-4641 -16 c-7 -2 -21 -2 -30 0 -10 3 -4 5 12 5 17 0 24
-2 18 -5z m-193 -19 c0 -3 -7 -12 -15 -20 -12 -13 -15 -13 -15 -1 0 7 3 17 7
20 8 8 23 9 23 1z m265 -13 c6 -1 4 -5 -4 -10 -8 -5 -44 -8 -80 -6 -80 4 -79
4 -64 13 9 6 114 8 148 3z m4688 -113 c27 -53 40 -92 43 -134 5 -53 4 -57 -9
-41 -8 10 -18 42 -22 72 -4 32 -16 69 -31 90 -13 20 -24 43 -24 51 0 8 -7 17
-15 20 -17 7 -9 27 8 21 6 -2 29 -37 50 -79z m-143 -40 c0 -24 -18 -51 -21
-31 -6 38 -7 60 -3 73 4 13 6 13 14 0 6 -8 10 -27 10 -42z m-213 10 c-3 -7 -5
-2 -5 12 0 14 2 19 5 13 2 -7 2 -19 0 -25z m303 11 c0 -6 -4 -7 -10 -4 -5 3
-10 11 -10 16 0 6 5 7 10 4 6 -3 10 -11 10 -16z m-466 -5 c3 -9 6 -25 6 -36 0
-17 -3 -18 -15 -8 -16 13 -21 60 -6 60 5 0 12 -7 15 -16z m-4084 -9 c0 -8 -4
-15 -9 -15 -13 0 -22 16 -14 24 11 11 23 6 23 -9z m3677 -47 c-3 -8 -6 -5 -6
6 -1 11 2 17 5 13 3 -3 4 -12 1 -19z m669 -80 c16 -88 17 -111 5 -104 -4 3
-11 33 -15 66 -4 33 -12 60 -18 60 -6 0 -8 -17 -4 -47 l6 -48 -15 45 c-11 34
-12 54 -4 84 14 53 29 35 45 -56z m-4525 1 c-12 -13 -21 -19 -21 -14 0 11 32
46 38 41 2 -3 -5 -15 -17 -27z m3942 -36 c22 -61 21 -64 -4 -92 l-22 -23 -19
31 c-29 45 -33 86 -11 110 28 30 38 25 56 -26z m-3443 32 c0 -6 -56 -35 -67
-35 -13 1 41 40 55 40 6 0 12 -2 12 -5z m-90 -60 c-7 -8 -17 -15 -23 -15 -6 0
-2 7 9 15 25 19 30 19 14 0z m3974 -1 c11 -28 6 -88 -9 -107 -13 -18 -14 -17
-17 5 -5 36 3 118 12 118 4 0 11 -7 14 -16z m-3889 -24 c-8 -12 -51 -35 -85
-44 l-25 -7 24 20 c13 12 31 21 42 21 10 0 21 5 24 10 3 6 11 10 16 10 6 0 7
-5 4 -10z m4285 -117 c-19 -15 -26 7 -11 36 6 11 12 35 13 53 1 21 3 13 7 -22
5 -42 3 -58 -9 -67z m-4860 93 c0 -3 -4 -8 -10 -11 -5 -3 -10 -1 -10 4 0 6 5
11 10 11 6 0 10 -2 10 -4z m4679 -110 c-6 -28 -10 -65 -11 -83 0 -18 -6 -38
-14 -44 -20 -16 -28 -5 -15 19 6 12 11 35 11 53 0 18 5 62 12 98 10 59 12 63
19 37 4 -16 3 -52 -2 -80z m-4169 39 c-13 -14 -29 -25 -36 -25 -7 0 -15 -14
-19 -30 -4 -17 -16 -35 -27 -41 -42 -22 -98 -82 -98 -104 0 -12 -13 -40 -28
-61 -35 -47 -62 -72 -62 -55 0 17 29 71 38 71 4 0 15 12 25 26 14 18 16 28 8
38 -8 9 -4 22 14 47 46 62 141 141 182 152 10 3 20 5 22 6 3 0 -6 -10 -19 -24z
m3865 6 c-3 -6 -11 -11 -17 -11 -6 0 -6 6 2 15 14 17 26 13 15 -4z m226 -44
c-13 -13 -15 21 -3 50 6 15 8 13 10 -11 2 -16 -1 -33 -7 -39z m-603 -8 c-12
-46 -17 -45 -23 5 -6 45 1 61 20 46 10 -8 10 -20 3 -51z m52 51 c0 -5 -4 -10
-10 -10 -5 0 -10 5 -10 10 0 6 5 10 10 10 6 0 10 -4 10 -10z m150 -58 c13 -12
12 -13 -9 -10 -17 2 -25 10 -27 28 -3 21 -2 23 9 10 7 -8 19 -21 27 -28z
m-3927 3 c-3 -9 -8 -14 -10 -11 -3 3 -2 9 2 15 9 16 15 13 8 -4z m3807 3 c0
-24 -18 -41 -35 -34 -17 6 -17 8 0 26 21 23 35 26 35 8z m96 -39 c3 -6 18 -8
33 -4 l26 6 -30 -25 c-16 -14 -37 -28 -46 -31 -11 -4 -15 -13 -12 -25 4 -15 0
-20 -16 -20 -27 0 -26 10 2 65 23 46 31 53 43 34z m-158 -41 c10 -10 15 -10
22 2 12 20 35 -2 27 -24 -5 -11 -20 -16 -52 -16 -46 0 -58 13 -33 38 15 15 21
15 36 0z m573 -41 c-15 -15 -36 6 -27 28 5 15 7 15 22 0 13 -12 14 -19 5 -28z
m209 13 c0 -39 -95 -164 -131 -173 -20 -5 -19 -3 8 26 16 18 39 51 51 74 32
64 72 104 72 73z m-4519 -63 c-16 -16 -20 -5 -8 23 9 22 11 23 14 6 3 -10 0
-23 -6 -29z m4570 20 c-10 -9 -11 -8 -5 6 3 10 9 15 12 12 3 -3 0 -11 -7 -18z
m-797 -12 c-3 -8 -21 -19 -40 -25 -26 -9 -34 -17 -34 -36 0 -29 11 -31 28 -4
7 11 17 20 23 20 17 0 -30 -75 -67 -104 -37 -29 -46 -17 -18 23 15 21 21 75
13 110 -4 15 29 27 78 30 16 1 21 -3 17 -14z m616 -29 c0 -15 -55 -66 -71 -66
-20 0 -7 30 24 54 37 29 47 32 47 12z m-927 -57 c6 -42 -7 -73 -22 -50 -7 11
-10 10 -18 -4 -7 -11 -13 -14 -17 -7 -3 6 -2 13 4 17 5 3 10 17 10 31 0 32 19
69 30 58 4 -5 10 -25 13 -45z m-3562 -82 c-13 -13 -15 41 -3 70 5 13 8 8 10
-21 2 -21 -1 -43 -7 -49z m4614 64 c-10 -17 -85 -53 -98 -48 -7 2 2 10 18 18
17 7 41 21 54 31 25 19 38 18 26 -1z m-1205 -41 c0 -11 -4 -20 -10 -20 -5 0
-10 9 -10 20 0 11 5 20 10 20 6 0 10 -9 10 -20z m1050 -36 c0 -2 -19 -3 -42
-3 -39 1 -41 2 -13 8 28 7 55 4 55 -5z m-910 -32 c30 -7 35 -13 42 -46 14 -65
-31 -88 -86 -45 -22 17 -26 28 -26 70 0 44 2 48 18 39 9 -5 33 -13 52 -18z
m-3415 -59 c-33 -58 -40 -66 -30 -33 16 55 48 115 52 98 2 -9 -8 -39 -22 -65z
m4390 40 c-3 -10 -10 -49 -15 -88 -8 -70 -25 -127 -54 -183 -10 -19 -12 -33
-6 -37 11 -6 -45 -125 -58 -125 -9 0 -13 198 -5 248 4 23 10 32 19 28 8 -3 14
1 14 9 0 8 11 35 25 61 14 25 22 50 19 55 -7 11 35 48 55 49 8 0 11 -6 6 -17z
m-4547 -53 c-2 -5 -9 -6 -17 -1 -9 6 -11 16 -7 27 7 18 8 18 17 1 6 -10 9 -22
7 -27z m4579 -12 c-3 -7 -5 -2 -5 12 0 14 2 19 5 13 2 -7 2 -19 0 -25z m-490
5 c5 -15 -39 -27 -71 -19 -15 4 -28 0 -36 -9 -17 -20 -30 -19 -30 3 0 31 128
54 137 25z m163 -17 c0 -35 -1 -36 -75 -63 -5 -3 2 5 18 17 40 32 36 50 -10
43 l-38 -6 19 21 c12 14 31 22 53 22 31 0 33 -2 33 -34z m-4270 -40 c-12 -54
-30 -70 -30 -26 0 19 8 41 18 50 9 10 18 17 19 16 1 -1 -2 -19 -7 -40z m47 2
c-3 -8 -6 -5 -6 6 -1 11 2 17 5 13 3 -3 4 -12 1 -19z m3557 -20 c-8 -12 -81
-48 -96 -47 -10 0 -10 2 0 6 7 3 17 15 22 27 6 17 16 22 43 22 20 0 33 -4 31
-8z m-3577 -98 c0 -33 -4 -60 -9 -60 -9 0 -11 64 -2 98 4 12 7 22 8 22 2 0 3
-27 3 -60z m3768 50 c-3 -5 -10 -10 -16 -10 -5 0 -9 5 -9 10 0 6 7 10 16 10 8
0 12 -4 9 -10z m-3705 -47 c0 -10 -5 -25 -10 -33 -7 -11 -10 -7 -10 18 0 17 5
32 10 32 6 0 10 -8 10 -17z m3778 11 c33 -7 45 -23 33 -43 -6 -9 -15 -8 -37 3
-16 8 -37 17 -46 20 -10 3 -18 10 -18 16 0 11 23 13 68 4z m272 -3 c0 -5 -7
-12 -16 -15 -28 -11 -54 -6 -54 9 0 10 11 15 35 15 19 0 35 -4 35 -9z m-580
-111 c0 -5 -4 -10 -10 -10 -5 0 -10 5 -10 10 0 6 5 10 10 10 6 0 10 -4 10 -10z
m-15 -30 c3 -5 -1 -10 -10 -10 -9 0 -13 5 -10 10 3 6 8 10 10 10 2 0 7 -4 10
-10z m-205 -91 c10 -7 0 -8 -30 -3 -25 3 -49 11 -55 16 -12 13 63 1 85 -13z
m-630 -29 c0 -5 -7 -7 -15 -4 -8 4 -12 10 -9 15 6 11 24 2 24 -11z m1120 -141
c12 -7 11 -8 -5 -8 -11 0 -29 7 -40 15 -19 16 -19 16 5 9 14 -4 32 -11 40 -16z
m984 -115 c23 -9 20 -34 -4 -34 -11 0 -20 2 -20 4 0 2 -3 11 -6 20 -6 17 4 20
30 10z m-1000 -193 c3 -5 -11 -11 -32 -13 -41 -6 -47 -4 -37 11 8 13 62 15 69
2z m402 -148 c-3 -3 -1 -12 5 -19 26 -32 13 -214 -16 -214 -5 0 -31 20 -56 45
-26 25 -59 49 -73 55 -18 6 -26 17 -26 33 0 21 6 25 53 33 43 7 53 13 55 32 2
12 8 22 14 22 5 0 8 7 4 15 -3 8 -3 22 1 31 5 13 8 12 25 -6 11 -12 17 -24 14
-27z m394 -197 c-13 -65 -57 -166 -89 -204 -57 -66 -264 -37 -346 48 -36 37
-27 50 10 16 29 -27 63 -42 72 -32 4 3 7 51 7 106 1 89 3 100 19 100 22 0 40
-45 28 -69 -11 -21 2 -47 18 -36 7 4 17 18 22 33 6 15 13 22 19 16 9 -9 14
-89 8 -134 -3 -21 1 -25 27 -27 17 -1 24 0 18 3 -17 8 -16 24 1 24 19 0 30
-32 14 -42 -9 -5 -6 -8 9 -8 20 0 63 42 63 61 0 5 14 28 30 51 17 22 35 60 40
82 6 23 16 59 23 81 10 34 12 36 15 16 2 -14 -1 -52 -8 -85z m-845 -146 c21
-17 19 -44 -5 -65 -12 -11 -19 -28 -18 -44 3 -25 1 -26 -43 -23 -25 1 -58 -2
-72 -7 -23 -9 -28 -7 -38 10 -6 11 -13 18 -16 15 -9 -8 -43 24 -43 40 0 7 -8
17 -17 22 -14 8 -12 12 13 25 16 8 48 18 71 22 24 4 45 10 48 15 7 12 103 4
120 -10z m-801 4 c9 -3 13 -10 10 -15 -8 -14 -40 -11 -54 6 -10 12 -9 15 8 15
11 0 27 -3 36 -6z m-2006 -16 c-2 -7 4 -12 12 -11 8 1 33 -13 55 -32 l40 -35
-37 11 c-35 9 -39 8 -68 -23 -21 -22 -30 -40 -28 -57 3 -22 -2 -27 -24 -29
-16 -2 -28 1 -28 7 0 6 -8 8 -17 5 -12 -3 -10 -1 4 8 29 17 66 66 59 77 -3 5
1 14 9 21 11 9 12 16 2 31 -10 16 -9 21 3 29 19 13 20 12 18 -2z m-217 -55
c21 -45 59 -102 87 -131 6 -7 12 -17 12 -20 0 -4 21 -29 46 -55 58 -61 51 -73
-9 -15 -46 44 -135 180 -155 236 -16 47 -7 39 19 -15z m3008 -117 c24 -13 22
-14 -30 -21 -30 -4 -85 -20 -122 -35 -49 -21 -65 -24 -55 -12 36 44 58 63 66
58 5 -3 17 1 27 8 24 17 84 18 114 2z m-859 -6 c0 -5 -14 -10 -30 -10 -19 0
-30 -5 -29 -12 3 -27 -2 -38 -16 -38 -23 0 -18 -16 6 -17 13 -1 23 5 26 18 7
26 22 24 33 -3 8 -22 9 -22 9 5 1 17 6 27 16 27 19 0 19 0 -1 -38 -9 -19 -23
-32 -35 -32 -21 0 -22 -1 -13 -24 3 -9 12 -16 20 -16 8 0 14 -5 14 -11 0 -6
-12 -9 -27 -7 -20 2 -29 9 -31 26 -4 27 -6 27 -40 2 -18 -14 -35 -18 -47 -14
-17 7 -16 8 4 16 19 7 22 13 16 37 -5 25 -2 32 22 44 l28 15 -30 14 -30 13 50
6 c81 10 85 9 85 -1z m135 -20 c3 -5 1 -10 -4 -10 -6 0 -11 5 -11 10 0 6 2 10
4 10 3 0 8 -4 11 -10z m105 -10 c12 -8 11 -10 -7 -10 -13 0 -23 5 -23 10 0 13
11 13 30 0z m-151 -19 c12 -8 12 -12 -2 -26 -10 -9 -17 -12 -17 -7 0 6 -3 17
-6 26 -7 18 4 20 25 7z m-259 -46 c0 -8 -9 -15 -20 -15 -22 0 -27 15 -7 23 21
9 27 7 27 -8z m30 11 c0 -3 -4 -8 -10 -11 -5 -3 -10 -1 -10 4 0 6 5 11 10 11
6 0 10 -2 10 -4z m309 -40 c10 -12 8 -19 -8 -35 -12 -12 -25 -21 -31 -21 -14
0 -13 43 2 58 16 16 23 15 37 -2z m136 -6 c-3 -5 -10 -10 -16 -10 -5 0 -9 5
-9 10 0 6 7 10 16 10 8 0 12 -4 9 -10z m22 -28 c6 -4 15 -21 19 -37 4 -17 11
-35 16 -42 14 -18 -7 -25 -36 -12 -14 7 -26 20 -26 31 0 10 -4 18 -9 18 -5 0
-4 11 2 25 13 27 16 29 34 17z m-83 -47 c3 -9 0 -15 -9 -15 -9 0 -12 6 -9 15
4 8 7 15 9 15 2 0 5 -7 9 -15z m-244 -15 c0 -5 -4 -10 -10 -10 -5 0 -10 5 -10
10 0 6 5 10 10 10 6 0 10 -4 10 -10z m204 -15 c-4 -10 0 -16 12 -17 11 0 26
-2 34 -2 9 -1 14 -9 12 -21 -5 -28 -9 -29 -26 -14 -8 8 -22 20 -31 27 -17 14
-20 42 -5 42 5 0 7 -7 4 -15z m857 -281 c7 -14 12 -37 11 -52 -4 -46 -45 -51
-56 -7 -4 14 -15 29 -26 35 -11 6 -24 19 -30 29 -9 17 -6 19 39 19 42 1 50 -3
62 -24z m-621 -549 c0 -18 -5 -25 -20 -25 -20 0 -28 28 -13 43 15 16 33 6 33
-18z m-2730 -824 c0 -5 -7 -12 -16 -15 -14 -5 -15 -4 -4 9 14 17 20 19 20 6z
m2485 -201 c3 -5 -1 -10 -10 -10 -9 0 -13 5 -10 10 3 6 8 10 10 10 2 0 7 -4
10 -10z m-1048 -154 c11 -11 -1 -13 -49 -8 -29 2 -45 8 -42 14 7 10 80 5 91
-6z m1368 -16 c27 -30 11 -35 -21 -6 -21 18 -24 25 -13 26 9 0 24 -9 34 -20z
m-1325 -150 c0 -5 -7 -10 -15 -10 -8 0 -15 5 -15 10 0 6 7 10 15 10 8 0 15 -4
15 -10z m193 -44 c6 -15 -1 -26 -15 -26 -4 0 -8 9 -8 20 0 23 15 27 23 6z m58
-9 c-13 -13 -15 -51 -3 -43 4 2 13 -4 20 -14 10 -16 9 -21 -8 -30 -17 -9 -20
-8 -20 10 0 11 -7 20 -15 20 -19 0 -19 2 2 44 9 19 20 33 26 29 5 -3 4 -10 -2
-16z m-1739 -300 c32 -20 62 -37 67 -37 5 0 15 -7 22 -16 7 -9 20 -19 29 -23
28 -11 160 -104 156 -109 -14 -14 -322 186 -387 251 -56 56 -48 70 9 16 26
-25 73 -62 104 -82z m226 88 c12 -19 20 -35 17 -35 -7 0 -55 54 -55 62 0 18
16 6 38 -27z m662 -55 c0 -5 -4 -10 -10 -10 -5 0 -10 5 -10 10 0 6 5 10 10 10
6 0 10 -4 10 -10z m400 -40 c0 -5 -4 -10 -9 -10 -6 0 -13 5 -16 10 -3 6 1 10
9 10 9 0 16 -4 16 -10z m-900 -74 c0 -16 -5 -23 -15 -22 -25 4 -37 23 -30 45
5 17 10 19 26 11 10 -6 19 -21 19 -34z m4230 -1311 c7 -8 8 -15 2 -15 -5 0
-15 7 -22 15 -7 8 -8 15 -2 15 5 0 15 -7 22 -15z m65 -75 c3 -5 2 -10 -4 -10
-5 0 -13 5 -16 10 -3 6 -2 10 4 10 5 0 13 -4 16 -10z m-76 -149 c15 -23 15
-24 -7 -10 -12 7 -24 20 -27 27 -8 21 17 9 34 -17z m46 -51 c3 -5 2 -10 -4
-10 -5 0 -13 5 -16 10 -3 6 -2 10 4 10 5 0 13 -4 16 -10z m55 -61 c0 -6 -4 -7
-10 -4 -5 3 -10 11 -10 16 0 6 5 7 10 4 6 -3 10 -11 10 -16z m-339 -851 c6
-11 17 -58 25 -102 l13 -81 -5 68 c-3 50 0 77 12 102 20 42 36 44 62 8 29 -42
33 -72 33 -225 l-1 -139 27 3 c24 3 29 13 70 143 66 207 73 225 89 225 20 0
46 -57 40 -88 -3 -15 -8 -67 -11 -117 -6 -104 -12 -140 -31 -175 -7 -14 -20
-51 -30 -83 -9 -32 -21 -60 -27 -64 -14 -9 -157 -15 -184 -8 -14 3 -23 13 -23
25 0 30 -18 33 -22 3 -2 -19 -9 -29 -24 -31 -36 -5 -54 29 -59 109 -3 41 -10
121 -16 179 -14 128 -13 239 2 257 17 20 47 16 60 -9z m-105 -202 c16 -12 19
-27 19 -88 l0 -73 -70 0 -70 0 3 -30 c10 -109 2 -144 -36 -145 -36 0 -93 271
-69 333 5 15 20 17 105 17 69 0 104 -4 118 -14z m324 -446 c0 -5 -2 -10 -4
-10 -3 0 -8 5 -11 10 -3 6 -1 10 4 10 6 0 11 -4 11 -10z m-10 -61 c0 -11 -4
-18 -10 -14 -5 3 -7 12 -3 20 7 21 13 19 13 -6z m7 -66 c-3 -10 -5 -4 -5 12 0
17 2 24 5 18 2 -7 2 -21 0 -30z m-530 -2525 c-3 -8 -6 -5 -6 6 -1 11 2 17 5
13 3 -3 4 -12 1 -19z"/>
<path d="M7812 15661 c2 -7 7 -12 11 -12 12 1 9 15 -3 20 -7 2 -11 -2 -8 -8z"/>
<path d="M7880 15620 c0 -5 5 -10 11 -10 5 0 7 5 4 10 -3 6 -8 10 -11 10 -2 0
-4 -4 -4 -10z"/>
<path d="M9948 15393 c7 -3 16 -2 19 1 4 3 -2 6 -13 5 -11 0 -14 -3 -6 -6z"/>
<path d="M10500 14994 c0 -8 5 -12 10 -9 6 4 8 11 5 16 -9 14 -15 11 -15 -7z"/>
<path d="M6840 14906 c0 -2 7 -6 15 -10 8 -3 15 -1 15 4 0 6 -7 10 -15 10 -8
0 -15 -2 -15 -4z"/>
<path d="M6860 14510 c0 -5 7 -10 15 -10 8 0 15 5 15 10 0 6 -7 10 -15 10 -8
0 -15 -4 -15 -10z"/>
<path d="M6850 14360 c0 -5 9 -10 19 -10 11 0 23 5 26 10 4 6 -5 10 -19 10
-14 0 -26 -4 -26 -10z"/>
<path d="M10112 13118 c5 -15 37 -18 41 -3 1 6 -9 12 -22 13 -16 3 -22 -1 -19
-10z"/>
<path d="M10990 12941 c0 -6 5 -13 10 -16 6 -3 10 1 10 9 0 9 -4 16 -10 16 -5
0 -10 -4 -10 -9z"/>
<path d="M10862 11738 c3 -15 1 -29 -5 -31 -5 -1 -2 -8 6 -16 14 -11 15 -8 11
25 -3 21 -7 40 -11 44 -3 3 -4 -7 -1 -22z"/>
<path d="M10150 11625 c0 -9 6 -12 15 -9 8 4 15 10 15 15 0 5 -7 9 -15 9 -8 0
-15 -7 -15 -15z"/>
<path d="M11552 5955 c0 -16 2 -22 5 -12 2 9 2 23 0 30 -3 6 -5 -1 -5 -18z"/>
<path d="M11782 5874 c-15 -55 -4 -82 14 -33 14 40 17 79 6 79 -4 0 -13 -21
-20 -46z"/>
<path d="M7880 15978 c0 -18 18 -34 28 -24 3 4 -2 14 -11 23 -16 16 -17 16
-17 1z"/>
<path d="M8840 15881 c0 -5 5 -13 10 -16 6 -3 10 -2 10 4 0 5 -4 13 -10 16 -5
3 -10 2 -10 -4z"/>
<path d="M8830 15840 c0 -5 5 -10 10 -10 6 0 10 5 10 10 0 6 -4 10 -10 10 -5
0 -10 -4 -10 -10z"/>
<path d="M8580 15793 c0 -12 5 -25 10 -28 13 -8 13 15 0 35 -8 12 -10 11 -10
-7z"/>
<path d="M7451 15704 c-5 -20 -6 -45 -2 -57 8 -19 10 -17 16 18 4 22 9 48 12
58 2 9 0 17 -6 17 -5 0 -15 -16 -20 -36z"/>
<path d="M8490 15692 c0 -4 13 -28 28 -53 16 -24 32 -53 37 -64 7 -17 9 -17
12 -4 2 10 -12 42 -32 73 -34 54 -45 65 -45 48z"/>
<path d="M7418 15564 c-12 -11 -10 -42 3 -49 14 -10 16 -4 10 28 -3 16 -9 25
-13 21z"/>
<path d="M8585 15530 c3 -5 8 -10 11 -10 2 0 4 5 4 10 0 6 -5 10 -11 10 -5 0
-7 -4 -4 -10z"/>
<path d="M8448 15523 c-29 -8 -20 -24 9 -17 26 7 26 7 20 -38 -7 -51 0 -66 19
-40 11 16 13 15 23 -10 13 -35 46 -39 36 -5 -4 12 -19 35 -34 51 l-26 29 30
-7 c17 -4 43 -10 58 -13 16 -3 34 -16 42 -32 8 -14 14 -20 15 -13 0 17 30 15
52 -5 10 -9 21 -13 24 -10 11 10 -14 34 -49 48 -18 7 -41 20 -52 29 -11 10
-40 20 -65 24 -25 4 -54 9 -65 11 -11 1 -28 1 -37 -2z"/>
<path d="M9351 15494 c0 -11 3 -14 6 -6 3 7 2 16 -1 19 -3 4 -6 -2 -5 -13z"/>
<path d="M9115 15380 c3 -5 15 -10 25 -10 10 0 22 5 25 10 4 6 -7 10 -25 10
-18 0 -29 -4 -25 -10z"/>
<path d="M9142 15340 c-14 -23 -16 -40 -3 -40 5 0 14 14 20 30 11 34 2 40 -17
10z"/>
<path d="M7080 14905 c7 -9 15 -13 17 -11 7 7 -7 26 -19 26 -6 0 -6 -6 2 -15z"/>
<path d="M10935 14509 c-4 -12 -2 -26 4 -32 8 -8 11 -2 11 21 0 37 -6 41 -15
11z"/>
<path d="M11060 14504 c0 -17 61 -134 70 -134 17 0 10 32 -18 84 -24 44 -52
71 -52 50z"/>
<path d="M6430 14445 c0 -9 5 -15 11 -13 6 2 11 8 11 13 0 5 -5 11 -11 13 -6
2 -11 -4 -11 -13z"/>
<path d="M6236 14223 c-6 -14 -5 -15 5 -6 7 7 10 15 7 18 -3 3 -9 -2 -12 -12z"/>
<path d="M6225 13920 c3 -5 8 -10 11 -10 2 0 4 5 4 10 0 6 -5 10 -11 10 -5 0
-7 -4 -4 -10z"/>
<path d="M6320 13871 c0 -14 18 -23 31 -15 8 4 7 9 -2 15 -18 11 -29 11 -29 0z"/>
<path d="M6369 13763 c-13 -16 -12 -17 4 -4 16 13 21 21 13 21 -2 0 -10 -8
-17 -17z"/>
<path d="M6333 13733 c-17 -6 -16 -23 1 -23 8 0 16 7 20 15 6 15 1 17 -21 8z"/>
<path d="M6420 13228 c0 -32 3 -39 10 -28 13 20 13 70 0 70 -5 0 -10 -19 -10
-42z"/>
<path d="M10515 12771 c-8 -15 3 -31 21 -31 9 0 14 7 12 17 -4 20 -24 28 -33
14z"/>
<path d="M11025 12640 c-3 -5 -1 -10 4 -10 6 0 11 5 11 10 0 6 -2 10 -4 10 -3
0 -8 -4 -11 -10z"/>
<path d="M10746 11559 c-9 -30 -15 -200 -7 -195 10 7 26 194 17 203 -3 3 -8 0
-10 -8z"/>
<path d="M10591 11499 c-30 -12 -171 -99 -171 -106 0 -3 7 -3 15 1 8 3 18 -2
23 -10 7 -12 14 -13 36 -4 15 5 38 10 52 10 37 0 101 36 107 61 7 26 -8 59
-26 58 -7 0 -23 -5 -36 -10z"/>
<path d="M4538 11423 c7 -3 16 -2 19 1 4 3 -2 6 -13 5 -11 0 -14 -3 -6 -6z"/>
<path d="M10627 11343 c-3 -4 5 -21 18 -37 25 -32 40 -23 22 14 -13 25 -32 36
-40 23z"/>
<path d="M3010 11331 c0 -5 -21 -32 -47 -59 -112 -117 -114 -121 -62 -180 16
-18 29 -37 29 -42 0 -19 -18 -19 -38 0 -21 20 -47 25 -74 15 -12 -5 -12 -13 1
-55 16 -51 27 -58 62 -40 12 7 25 7 37 1 11 -6 27 -5 47 3 17 7 47 11 67 8 45
-6 80 5 59 17 -10 6 -12 19 -7 46 6 32 10 36 34 34 15 -2 27 1 27 6 0 6 -8 10
-17 9 -23 -1 -30 24 -18 65 11 39 37 71 57 71 19 0 16 8 -14 35 -31 26 -47 20
-57 -19 -3 -13 -18 -31 -32 -41 l-27 -17 6 45 c4 28 2 49 -4 53 -6 3 -8 17 -5
30 5 17 2 24 -9 24 -8 0 -15 -4 -15 -9z m-103 -337 c-3 -3 -12 -4 -19 -1 -8 3
-5 6 6 6 11 1 17 -2 13 -5z"/>
<path d="M4746 11333 c-3 -4 -6 -16 -6 -27 0 -12 -27 -54 -60 -95 -51 -63 -57
-75 -45 -88 12 -12 20 -10 53 11 34 21 41 31 46 71 6 37 12 48 33 56 17 6 23
14 19 25 -3 9 -6 22 -6 29 0 14 -25 27 -34 18z"/>
<path d="M1440 11248 c0 -28 24 -66 33 -51 9 14 -7 66 -21 71 -7 2 -12 -6 -12
-20z"/>
<path d="M4507 11263 c-14 -13 -6 -23 19 -23 22 0 25 2 14 15 -14 16 -23 19
-33 8z"/>
<path d="M4560 11260 c0 -5 6 -10 13 -10 9 0 9 -2 -1 -9 -24 -15 16 -22 59
-11 27 8 37 15 33 25 -7 17 -104 22 -104 5z"/>
<path d="M10686 11214 c-7 -52 4 -84 15 -44 10 36 10 90 0 90 -4 0 -11 -21
-15 -46z"/>
<path d="M3427 11243 c-15 -4 -18 -12 -15 -44 2 -21 0 -39 -4 -39 -10 0 -11
-54 -1 -63 9 -10 34 13 27 25 -3 5 -3 21 0 34 6 21 9 24 22 13 20 -16 22 -11
16 39 -4 41 -8 45 -45 35z"/>
<path d="M1770 11228 c0 -6 7 -19 15 -28 12 -13 13 -23 6 -44 -6 -14 -7 -34
-4 -43 6 -16 5 -17 -11 -3 -16 13 -20 12 -31 -4 -10 -13 -11 -25 -5 -42 11
-27 3 -57 -14 -51 -6 2 -12 13 -14 25 -2 12 -8 22 -13 22 -6 0 -7 -9 -4 -21 5
-14 -1 -27 -20 -45 -28 -26 -40 -30 -50 -14 -11 17 -58 11 -80 -10 -18 -17
-27 -19 -47 -11 -14 5 -28 19 -31 31 -3 12 -11 20 -19 19 -13 -2 -54 12 -95
33 -25 12 -30 34 -10 41 7 2 -2 18 -25 40 -21 20 -38 40 -38 45 0 5 -11 21
-24 35 l-25 27 -35 -23 c-19 -12 -35 -26 -36 -32 0 -5 -5 -17 -10 -25 -8 -13
-12 -12 -29 7 -15 16 -38 23 -86 28 -64 7 -97 1 -59 -10 34 -11 49 -22 49 -36
0 -17 -43 -25 -58 -10 -6 6 -17 11 -25 11 -14 0 -80 -60 -65 -60 12 0 -20 -20
-33 -20 -6 0 -15 14 -20 31 -13 47 -37 58 -75 37 -17 -10 -48 -18 -69 -18 -39
0 -49 -13 -50 -65 -1 -35 -15 -48 -39 -36 -11 6 -30 16 -41 21 -31 16 -46 12
-64 -15 -21 -32 -12 -63 20 -71 27 -7 32 -31 9 -40 -8 -4 -15 -13 -15 -21 0
-22 -27 -44 -52 -42 -13 1 -33 1 -46 1 -21 -2 -22 -3 -7 -26 15 -23 15 -23
-31 -29 -49 -5 -92 -36 -79 -57 14 -23 63 -32 200 -36 238 -7 291 -11 314 -23
32 -18 77 -10 73 12 -2 11 6 21 22 26 30 12 177 13 195 2 18 -12 5 -31 -22
-31 -12 0 -28 -4 -35 -9 -17 -11 149 -22 393 -26 105 -1 240 -6 300 -9 340
-18 1218 -24 1237 -9 7 6 22 13 33 16 17 4 16 5 -5 7 -14 1 -29 1 -35 0 -11
-2 -170 -1 -318 3 -101 2 -124 12 -111 47 3 8 8 20 10 25 2 6 -12 21 -32 33
-31 20 -41 22 -61 13 -27 -12 -43 -7 -43 14 0 9 -6 12 -16 8 -11 -4 -28 7 -51
32 -32 35 -35 36 -52 21 -19 -17 -71 -22 -71 -7 0 8 -8 12 -60 28 -8 2 -45 6
-82 8 -95 5 -105 13 -66 55 15 16 18 25 10 28 -7 2 -13 13 -13 25 -1 17 -2 18
-6 5 -5 -21 -14 -23 -31 -6 -9 9 -15 8 -27 -8 -15 -18 -15 -18 -10 7 8 33 -15
54 -50 45 -20 -5 -27 -1 -40 23 -14 29 -14 30 15 51 17 12 30 24 30 28 0 4
-13 15 -30 24 -16 9 -36 33 -44 52 -14 34 -36 49 -36 24z m-526 -127 c3 -27
-1 -35 -21 -44 -19 -8 -27 -7 -41 6 -15 16 -14 19 18 46 19 16 36 28 38 27 1
-2 4 -17 6 -35z m-141 -31 c-3 -11 0 -27 7 -35 12 -15 6 -35 -11 -35 -11 0
-48 40 -49 52 0 11 31 38 45 38 8 0 11 -7 8 -20z m-471 -127 c24 -21 23 -40
-2 -48 -34 -11 -55 21 -41 63 3 8 27 0 43 -15z m-72 -9 c0 -8 -4 -12 -10 -9
-5 3 -10 10 -10 16 0 5 5 9 10 9 6 0 10 -7 10 -16z m885 -75 c-8 -26 -18 -24
-32 6 -9 21 -8 28 5 41 14 15 16 14 24 -6 5 -13 6 -31 3 -41z m442 0 c9 -9 9
-18 -1 -38 -7 -14 -10 -35 -6 -45 5 -17 7 -17 13 -4 9 24 73 15 97 -14 29 -34
26 -52 -7 -44 -16 4 -37 7 -48 7 -11 0 -27 7 -37 16 -14 12 -23 13 -49 4 -42
-15 -55 -1 -30 31 11 13 23 38 27 54 11 48 20 54 41 33z m-243 -65 c4 -11 1
-14 -11 -12 -9 2 -18 9 -21 16 -6 18 25 15 32 -4z m96 -73 c0 -12 -20 -25 -27
-18 -7 7 6 27 18 27 5 0 9 -4 9 -9z"/>
<path d="M10366 11216 c-4 -15 -17 -28 -36 -34 -37 -14 -38 -22 -2 -22 16 0
43 13 66 32 35 28 37 33 20 39 -32 13 -42 10 -48 -15z"/>
<path d="M15465 11220 c-8 -12 20 -24 35 -15 5 3 10 10 10 16 0 12 -37 12 -45
-1z"/>
<path d="M335 11210 c-3 -5 -4 -14 0 -19 3 -5 1 -12 -5 -16 -5 -3 -10 0 -10 7
0 7 -8 4 -21 -9 -32 -31 -19 -53 32 -53 28 0 46 6 55 18 11 14 13 14 14 2 0
-13 1 -13 10 0 18 27 12 41 -15 34 -28 -7 -36 13 -9 23 13 5 13 7 2 14 -18 12
-45 11 -53 -1z"/>
<path d="M16527 11213 c-4 -3 -7 -11 -7 -17 0 -6 5 -5 12 2 6 6 9 14 7 17 -3
3 -9 2 -12 -2z"/>
<path d="M17956 11195 c-28 -31 -45 -31 -80 -4 -31 24 -30 24 -43 -15 -10 -32
3 -76 23 -76 15 0 64 -24 64 -31 0 -4 18 -2 40 3 49 13 93 -10 89 -45 -4 -28
17 -67 36 -67 17 0 21 65 5 75 -7 4 -7 13 0 26 9 16 7 19 -10 19 -23 0 -25 11
-7 41 10 17 10 23 0 26 -7 3 -13 11 -13 19 0 7 -18 23 -40 34 l-40 21 -24 -26z"/>
<path d="M2301 11187 c-5 -12 -16 -29 -25 -36 -37 -31 -9 -62 32 -34 15 10 36
20 47 23 26 8 32 38 8 46 -10 3 -26 10 -36 15 -14 7 -19 5 -26 -14z"/>
<path d="M7060 11172 c0 -26 4 -41 10 -37 13 8 13 45 0 65 -7 11 -10 3 -10
-28z"/>
<path d="M12725 11200 c-3 -5 -1 -10 4 -10 6 0 11 5 11 10 0 6 -2 10 -4 10 -3
0 -8 -4 -11 -10z"/>
<path d="M14985 11170 c-3 -5 -19 -10 -34 -10 -22 0 -32 -8 -47 -37 -15 -29
-27 -39 -49 -41 -35 -4 -51 -16 -58 -41 -7 -29 7 -43 49 -45 22 -1 44 -4 49
-5 6 -2 20 -3 33 -2 17 1 22 7 22 29 0 19 3 23 9 13 13 -20 29 -5 24 23 -3 14
2 35 11 48 18 25 21 64 7 73 -5 3 -12 1 -16 -5z"/>
<path d="M17510 11170 c-8 -5 -34 -10 -56 -10 l-42 0 4 -59 c3 -47 0 -63 -16
-80 -23 -27 -28 -27 -46 -4 -18 24 -17 36 2 29 12 -5 14 -1 9 15 -4 12 -7 36
-7 53 0 29 -3 32 -23 28 -12 -2 -26 1 -29 7 -12 18 -23 13 -76 -34 -28 -25
-57 -45 -65 -45 -19 0 -45 -51 -45 -90 0 -30 -21 -42 -35 -20 -10 17 -36 11
-71 -15 -28 -22 -36 -24 -53 -13 -15 9 -23 9 -35 -1 -21 -18 -22 -87 -1 -95
26 -10 17 -55 -17 -86 -29 -27 -32 -28 -53 -12 -14 11 -20 24 -17 39 5 25 -12
32 -22 8 -3 -8 -15 -15 -27 -15 -15 0 -19 5 -15 15 4 10 -2 19 -17 24 -35 14
-77 58 -77 82 0 12 -7 31 -17 41 -9 10 -21 28 -27 41 -8 15 -22 23 -45 25 -28
3 -32 6 -27 25 3 12 6 34 6 50 0 20 7 30 26 37 14 6 24 15 22 22 -7 20 -26 20
-47 -1 -21 -21 -31 -18 -31 11 0 26 -33 23 -45 -4 -6 -13 -23 -27 -40 -32 -40
-14 -39 -12 -37 -53 3 -33 -9 -52 -30 -53 -4 0 -14 14 -23 30 -19 36 -34 37
-58 4 -18 -24 -18 -37 -2 -77 12 -28 -36 -18 -51 10 -6 13 -19 32 -29 43 -16
18 -20 19 -35 5 -27 -24 -81 -31 -92 -12 -13 24 -35 21 -66 -8 -32 -30 -46
-20 -45 30 1 36 -18 48 -34 21 -13 -22 -36 -24 -71 -5 -30 15 -36 16 -62 2
-17 -8 -30 -21 -30 -28 0 -17 38 -45 61 -45 9 0 20 -7 23 -16 6 -15 9 -15 30
5 l23 21 61 -68 c59 -67 60 -70 55 -113 -3 -24 -10 -50 -16 -56 -13 -18 -56
-16 -63 2 -4 10 -14 13 -29 9 -30 -7 -71 46 -57 73 12 22 -3 67 -19 58 -6 -4
-9 -16 -6 -26 3 -10 -2 -24 -10 -30 -11 -10 -20 -9 -42 4 -15 9 -37 14 -48 11
-11 -3 -34 0 -49 8 -38 18 -81 12 -87 -13 -5 -20 -33 -36 -44 -25 -4 4 1 22
12 41 15 29 16 40 7 61 -7 14 -19 24 -30 23 -9 -1 -32 -1 -49 0 -31 1 -33 3
-33 37 0 29 -3 34 -17 30 -10 -3 -45 -6 -78 -7 -46 -1 -69 3 -98 20 -46 26
-61 22 -124 -30 -26 -21 -50 -39 -53 -39 -3 0 -10 10 -15 22 -12 25 -35 36
-35 16 0 -7 -14 -31 -32 -52 -30 -36 -34 -38 -75 -32 -23 3 -63 9 -87 12 -37
5 -45 3 -59 -15 -8 -12 -36 -29 -61 -36 -46 -14 -47 -14 -58 10 -13 30 -40 40
-67 26 -27 -15 -29 -14 -41 10 -8 13 -8 24 -2 32 15 18 12 85 -3 91 -7 2 -25
-9 -41 -25 -15 -16 -34 -29 -42 -29 -10 0 -13 -9 -10 -29 4 -24 0 -31 -18 -35
-26 -7 -68 7 -79 25 -5 6 -8 21 -9 33 -1 19 -7 21 -50 18 -35 -1 -55 3 -68 14
-11 10 -18 12 -18 6 0 -7 -9 -12 -20 -12 -27 0 -44 -34 -25 -50 21 -18 19 -29
-10 -42 -16 -7 -25 -19 -25 -33 0 -20 -26 -53 -34 -44 -2 2 -6 23 -10 47 -4
28 -3 42 5 42 10 0 6 97 -7 143 -7 23 -36 22 -51 -2 -6 -10 -33 -45 -59 -77
-44 -54 -47 -61 -45 -111 2 -47 0 -53 -18 -53 -17 0 -21 9 -27 69 -5 56 -11
74 -30 90 -13 12 -29 21 -34 21 -6 0 -10 7 -10 16 0 13 -3 14 -15 4 -8 -6 -23
-9 -34 -5 -11 3 -29 0 -41 -7 -18 -12 -23 -10 -46 17 l-25 30 6 -40 c4 -22 8
-42 10 -45 2 -3 40 -5 84 -4 l81 1 0 -51 c0 -29 5 -57 12 -64 8 -8 5 -26 -15
-70 -32 -71 -33 -81 -8 -58 19 17 20 17 31 -4 8 -14 17 -19 28 -15 20 7 798 7
992 -1 74 -3 137 -9 141 -15 3 -6 96 -11 230 -13 123 -2 314 -7 424 -11 179
-7 216 -5 352 14 84 13 157 20 162 17 14 -9 588 -7 634 2 48 9 362 -2 517 -17
137 -14 184 -27 176 -48 -3 -8 -6 -18 -6 -21 0 -4 -13 -7 -29 -8 -31 -1 -111
-60 -111 -82 0 -10 8 -12 33 -5 17 4 58 7 90 6 43 -2 57 1 57 12 0 16 34 38
44 28 3 -4 12 0 19 8 6 8 29 21 50 28 32 11 39 10 53 -3 15 -15 39 -18 183
-18 31 -1 48 5 57 17 7 9 17 14 23 10 15 -9 14 -21 -3 -38 -13 -13 -20 -37
-17 -64 0 -7 14 -13 31 -13 33 0 39 -14 12 -29 -28 -15 -64 11 -77 54 -11 42
-45 56 -71 30 -8 -8 -20 -12 -27 -10 -7 2 -31 6 -54 9 -40 6 -42 5 -48 -24 -4
-17 -12 -30 -18 -30 -7 0 -21 -13 -31 -29 -12 -17 -35 -34 -58 -40 -21 -7 -38
-16 -38 -21 0 -6 144 -10 380 -10 l380 0 0 24 c0 13 -6 27 -12 29 -10 4 -10 6
0 6 19 1 17 187 -3 195 -8 3 -15 12 -15 21 0 8 7 15 15 15 12 0 15 13 15 55 0
52 -1 54 -22 47 -27 -8 -60 -7 -106 3 -30 7 -33 11 -29 34 2 14 7 34 11 43 5
11 0 24 -14 38 -25 25 -55 20 -83 -13 -17 -19 -20 -20 -31 -6 -8 12 -17 14
-35 7 -21 -7 -23 -6 -18 13 4 15 0 23 -13 26 -11 3 -22 18 -26 37 -11 53 -50
62 -88 21 -28 -30 -61 -32 -76 -4 -9 16 -8 20 2 18 30 -4 48 2 48 16 0 8 -7
15 -15 15 -8 0 -15 -5 -15 -11 0 -8 -12 -10 -33 -6 -19 3 -40 1 -48 -4 -9 -6
-10 -9 -2 -9 7 0 10 -6 7 -13 -3 -8 2 -20 11 -27 23 -19 19 -42 -7 -40 -48 4
-57 -1 -75 -41 l-18 -41 -22 26 c-12 14 -24 26 -27 26 -10 0 -56 -48 -56 -58
0 -5 -7 -12 -15 -16 -8 -3 -20 -17 -25 -31 -6 -17 -16 -25 -27 -23 -10 1 -23
-1 -30 -5 -17 -10 -43 3 -43 22 0 9 -12 33 -26 54 -19 29 -24 45 -19 68 8 35
30 47 57 30 13 -8 24 -8 37 -1 25 13 30 29 17 62 -7 19 -6 34 3 55 9 19 9 29
2 31 -13 4 -15 32 -2 32 20 0 36 -36 36 -84 0 -50 1 -51 32 -54 21 -2 37 -11
44 -23 9 -18 12 -19 22 -6 7 8 29 18 49 21 28 5 41 14 53 39 16 31 15 33 -9
52 -15 12 -26 25 -26 30 -1 19 -46 51 -90 64 -25 7 -55 17 -68 22 -27 11 -24
11 -42 -1z m-996 -185 c3 -9 0 -15 -9 -15 -8 0 -15 7 -15 15 0 8 4 15 9 15 5
0 11 -7 15 -15z m25 -93 c1 -13 -3 -20 -9 -17 -5 3 -10 23 -9 43 0 30 2 33 9
17 5 -11 9 -30 9 -43z m-417 31 c18 -16 25 -43 10 -43 -9 0 -52 46 -52 55 0
11 24 4 42 -12z m-614 -28 c10 -22 9 -25 -8 -25 -23 0 -32 13 -24 34 9 23 19
20 32 -9z m1476 0 c-6 -16 -24 -21 -24 -7 0 11 11 22 21 22 5 0 6 -7 3 -15z
m916 -21 c0 -18 -14 -18 -30 1 -16 19 -3 40 16 24 8 -6 14 -18 14 -25z m-3583
10 c-3 -3 -12 -4 -19 -1 -8 3 -5 6 6 6 11 1 17 -2 13 -5z m2878 -4 c-3 -5 -10
-10 -16 -10 -5 0 -9 5 -9 10 0 6 7 10 16 10 8 0 12 -4 9 -10z m-2285 -4 c0 -3
-4 -8 -10 -11 -5 -3 -10 -1 -10 4 0 6 5 11 10 11 6 0 10 -2 10 -4z m1685 -6
c3 -5 1 -10 -4 -10 -6 0 -11 5 -11 10 0 6 2 10 4 10 3 0 8 -4 11 -10z m-2580
-50 c-5 -8 -11 -8 -17 -2 -6 6 -7 16 -3 22 5 8 11 8 17 2 6 -6 7 -16 3 -22z
m2635 -30 c0 -57 -13 -64 -55 -27 -24 20 -26 25 -14 50 9 20 19 27 41 27 27 0
28 -2 28 -50z m1335 19 c0 -28 -23 -32 -39 -6 -8 14 -8 20 4 27 22 14 35 6 35
-21z m90 11 c3 -5 1 -10 -4 -10 -6 0 -11 5 -11 10 0 6 2 10 4 10 3 0 8 -4 11
-10z m-1541 -82 c-3 -5 -10 -6 -15 -3 -11 7 -12 58 -2 69 9 9 24 -54 17 -66z
m-2508 35 c-10 -10 -19 5 -10 18 6 11 8 11 12 0 2 -7 1 -15 -2 -18z m116 -5
c-9 -9 -12 -7 -12 12 0 19 3 21 12 12 9 -9 9 -15 0 -24z m1998 2 c0 -5 -4 -10
-10 -10 -5 0 -10 5 -10 10 0 6 5 10 10 10 6 0 10 -4 10 -10z m1405 -30 c3 -5
1 -10 -4 -10 -6 0 -11 5 -11 10 0 6 2 10 4 10 3 0 8 -4 11 -10z m60 -11 c4 -6
5 -12 2 -15 -7 -7 -37 7 -37 17 0 13 27 11 35 -2z m115 -68 c21 -6 18 -8 -24
-14 -49 -7 -66 -3 -66 14 0 10 53 10 90 0z m403 -66 c-3 -9 -8 -14 -10 -11 -3
3 -2 9 2 15 9 16 15 13 8 -4z m97 -35 c6 -10 26 -36 45 -57 35 -38 35 -38 11
-41 -33 -4 -84 23 -97 52 -8 16 -17 22 -30 19 -10 -3 -19 -9 -19 -14 0 -12
-27 -11 -35 1 -10 16 14 50 35 50 11 0 20 -5 20 -11 0 -6 7 -3 16 5 21 22 41
20 54 -4z"/>
<path d="M16022 11131 c2 -25 8 -46 15 -48 9 -3 10 7 6 34 -8 56 -25 67 -21
14z"/>
<path d="M3866 11148 c-12 -39 -15 -67 -7 -72 11 -7 44 61 36 74 -9 14 -25 12
-29 -2z"/>
<path d="M16344 11145 c-8 -20 -7 -21 34 -30 31 -6 33 -5 30 17 -4 29 -54 39
-64 13z"/>
<path d="M16717 11143 c-14 -16 -14 -20 3 -40 23 -29 26 -29 38 6 7 20 7 32
-1 40 -15 15 -21 14 -40 -6z"/>
<path d="M1577 11133 c-24 -23 18 -73 62 -73 35 0 32 16 -9 49 -42 34 -43 34
-53 24z"/>
<path d="M1464 11119 c-3 -6 -1 -16 5 -22 9 -9 14 -8 21 3 5 8 10 18 10 23 0
11 -28 8 -36 -4z"/>
<path d="M5267 11101 c-21 -36 -21 -50 -1 -72 19 -21 11 -39 -17 -39 -21 0
-21 -4 -3 -102 8 -38 -4 -68 -26 -68 -64 0 -68 -46 -9 -102 38 -36 43 -38 58
-24 10 9 22 16 27 16 6 0 19 6 30 14 19 15 19 15 -1 30 -19 14 -19 16 -3 32
17 17 19 17 40 -3 13 -11 28 -19 34 -16 16 5 46 -33 42 -54 -4 -24 -44 -43
-93 -43 l-40 -1 30 -13 c37 -16 297 -13 395 4 36 6 88 15 115 19 28 4 74 18
103 30 29 11 61 21 71 21 20 0 35 25 25 41 -3 5 -11 9 -17 9 -7 0 -25 7 -41
15 -20 11 -33 12 -40 5 -15 -15 -102 -12 -115 3 -13 16 -5 28 15 20 8 -3 14 0
14 6 0 6 -4 11 -10 11 -14 0 -12 44 2 58 10 10 10 15 -2 22 -10 6 -19 -2 -34
-33 -27 -56 -26 -55 -42 -33 -8 11 -14 42 -14 69 0 41 -3 48 -17 45 -11 -2
-23 -20 -32 -48 -23 -77 -45 -115 -66 -116 -11 -1 -35 -10 -54 -20 -18 -10
-42 -23 -52 -29 -11 -5 -19 -13 -19 -17 0 -5 -4 -8 -9 -8 -5 0 -8 11 -8 25 0
48 -26 115 -45 115 -21 0 -23 13 -7 42 8 15 7 28 -2 51 -19 46 -28 52 -81 53
-26 0 -51 4 -55 8 -4 4 0 21 10 39 18 31 18 31 -5 49 -30 23 -31 23 -51 -11z
m63 -178 c0 -10 -4 -24 -9 -32 -12 -19 -24 3 -16 29 8 25 25 26 25 3z"/>
<path d="M15496 11121 c-4 -7 -5 -15 -2 -18 9 -9 19 4 14 18 -4 11 -6 11 -12
0z"/>
<path d="M15794 11115 c-16 -13 -17 -16 -4 -25 24 -15 40 -12 40 9 0 27 -14
33 -36 16z"/>
<path d="M5397 11097 c-24 -37 -22 -56 4 -30 12 11 19 29 17 39 -3 15 -6 14
-21 -9z"/>
<path d="M12730 11103 c0 -10 5 -25 10 -33 7 -11 10 -7 10 18 0 17 -4 32 -10
32 -5 0 -10 -8 -10 -17z"/>
<path d="M16810 11079 c-32 -33 -31 -66 1 -48 10 5 19 14 19 19 0 6 11 10 24
10 13 0 29 7 36 15 10 12 8 16 -15 25 -35 13 -33 14 -65 -21z"/>
<path d="M5737 11083 c-4 -3 -7 -13 -7 -21 0 -12 3 -12 15 -2 8 7 15 16 15 21
0 11 -14 12 -23 2z"/>
<path d="M15371 11061 c-10 -6 -10 -10 -1 -16 13 -8 24 -1 19 14 -3 6 -10 7
-18 2z"/>
<path d="M3465 11049 c-10 -15 1 -23 20 -15 9 3 13 10 10 16 -8 13 -22 13 -30
-1z"/>
<path d="M0 11021 c0 -26 14 -41 41 -41 5 0 9 16 9 35 0 31 -3 35 -25 35 -21
0 -25 -5 -25 -29z"/>
<path d="M12532 11038 c-5 -7 -13 -23 -17 -36 -5 -17 -10 -20 -19 -13 -18 15
-54 -14 -58 -47 -2 -20 -11 -30 -35 -37 -18 -6 -35 -14 -40 -18 -11 -12 19
-27 43 -21 15 4 26 -2 38 -20 13 -20 22 -25 40 -20 30 7 76 -21 76 -47 0 -23
-16 -30 -70 -32 -22 -1 -38 -6 -37 -12 2 -6 46 -10 103 -11 54 0 109 -4 121
-8 12 -4 24 -2 28 4 4 6 -4 10 -19 10 -53 0 -76 79 -29 102 38 18 43 48 9 48
-28 0 -33 9 -14 28 20 20 -19 26 -47 8 -27 -17 -32 -13 -35 27 0 9 -2 31 -4
47 -2 17 -4 37 -5 45 -1 18 -15 19 -29 3z"/>
<path d="M3895 11030 c-3 -5 1 -10 9 -10 9 0 16 5 16 10 0 6 -4 10 -9 10 -6 0
-13 -4 -16 -10z"/>
<path d="M15670 11025 c-9 -11 -7 -19 14 -41 21 -23 27 -25 40 -15 24 20 19
50 -10 61 -32 12 -29 13 -44 -5z"/>
<path d="M5200 11016 c0 -9 5 -16 10 -16 6 0 10 4 10 9 0 6 -4 13 -10 16 -5 3
-10 -1 -10 -9z"/>
<path d="M14735 11022 c-18 -13 -35 -51 -29 -67 10 -25 23 -17 39 22 15 36 10
59 -10 45z"/>
<path d="M2080 11012 c0 -4 -10 -12 -22 -17 -13 -6 -24 -20 -26 -33 -3 -20 0
-23 25 -20 19 2 32 12 41 31 7 15 18 27 25 27 16 0 -14 20 -30 20 -7 0 -13 -3
-13 -8z"/>
<path d="M3165 11000 c-14 -15 -16 -23 -7 -32 17 -17 42 -1 42 27 0 30 -11 32
-35 5z"/>
<path d="M12353 10997 c-44 -16 -60 -34 -45 -49 24 -24 124 24 107 52 -8 12
-21 12 -62 -3z"/>
<path d="M367 10984 c-9 -10 2 -24 19 -24 8 0 14 7 14 15 0 15 -21 21 -33 9z"/>
<path d="M18320 10983 c-42 -5 -60 -20 -37 -29 21 -8 22 -57 2 -74 -24 -20
-19 -44 8 -35 12 3 32 9 45 12 20 5 22 11 22 69 0 35 -1 63 -2 62 -2 0 -19 -3
-38 -5z"/>
<path d="M11910 10965 c0 -8 5 -15 10 -15 6 0 10 7 10 15 0 8 -4 15 -10 15 -5
0 -10 -7 -10 -15z"/>
<path d="M4510 10955 c-12 -14 -5 -55 9 -55 11 0 29 43 24 58 -6 16 -18 15
-33 -3z"/>
<path d="M12830 10960 c0 -5 5 -10 10 -10 6 0 10 5 10 10 0 6 -4 10 -10 10 -5
0 -10 -4 -10 -10z"/>
<path d="M173 10953 c-18 -7 -16 -53 3 -74 13 -15 20 -16 42 -6 15 6 29 12 31
13 2 2 -7 19 -19 38 -21 35 -31 40 -57 29z"/>
<path d="M13110 10946 c0 -19 -9 -19 -67 -1 -21 7 -21 5 -10 -19 7 -14 20 -29
30 -32 13 -4 17 -16 17 -51 l0 -45 34 6 c22 4 37 2 42 -5 4 -8 24 -9 59 -5 41
5 55 2 66 -10 10 -12 10 -20 1 -35 -10 -16 -9 -19 6 -19 10 0 22 -4 28 -10 5
-5 67 -10 137 -11 70 -1 130 -6 133 -11 3 -5 1 -15 -5 -22 -9 -10 -39 -13
-118 -12 -88 1 -109 -2 -122 -15 -9 -10 -27 -19 -41 -21 -32 -4 -40 -42 -12
-57 20 -11 148 -1 171 13 5 4 35 -6 66 -21 55 -27 55 -27 89 -9 29 16 48 17
123 12 48 -4 95 -7 103 -8 45 -3 100 3 100 12 0 16 -42 33 -118 46 -41 7 -82
20 -91 28 -10 9 -33 17 -51 19 -39 5 -51 24 -25 43 13 10 22 11 31 3 17 -14
29 7 14 25 -7 9 -26 13 -55 10 -47 -5 -55 1 -29 21 14 10 14 13 2 26 -8 8 -21
25 -28 38 -11 21 -10 26 6 38 19 14 19 15 0 28 -24 18 -32 13 -39 -22 -9 -41
-59 -95 -88 -94 -74 1 -161 20 -177 37 -9 11 -24 20 -32 22 -24 5 -61 47 -63
71 -1 19 -6 22 -29 17 -21 -4 -31 0 -43 17 -13 19 -15 19 -15 3z m575 -306 c3
-5 1 -10 -4 -10 -6 0 -11 5 -11 10 0 6 2 10 4 10 3 0 8 -4 11 -10z"/>
<path d="M4690 10930 c0 -11 7 -20 15 -20 8 0 15 9 15 20 0 11 -7 20 -15 20
-8 0 -15 -9 -15 -20z"/>
<path d="M12675 10939 c-4 -6 -5 -13 -2 -16 7 -7 27 6 27 18 0 12 -17 12 -25
-2z"/>
<path d="M13485 10940 c3 -5 8 -10 11 -10 2 0 4 5 4 10 0 6 -5 10 -11 10 -5 0
-7 -4 -4 -10z"/>
<path d="M4587 10933 c-13 -12 -7 -23 13 -23 11 0 20 7 20 15 0 15 -21 21 -33
8z"/>
<path d="M12198 10893 c-15 -52 -42 -69 -53 -34 -11 35 -35 25 -35 -14 0 -33
2 -35 25 -29 23 6 25 4 25 -32 0 -22 4 -44 8 -49 4 -6 41 -9 87 -8 44 2 100 3
125 4 42 0 44 1 20 12 -14 7 -33 20 -42 30 -10 9 -24 17 -32 17 -8 0 -16 14
-18 31 -4 25 -1 33 14 37 10 2 18 9 18 16 0 14 -44 49 -74 58 -47 14 -54 9
-68 -39z"/>
<path d="M4984 10918 c-22 -32 -45 -86 -47 -113 -2 -26 2 -30 26 -33 17 -2 37
4 49 14 10 10 29 19 41 19 12 0 23 7 25 17 2 13 -1 16 -12 12 -22 -8 -56 34
-53 65 2 27 -15 39 -29 19z"/>
<path d="M12985 10917 c-4 -10 -5 -21 -1 -24 10 -10 18 4 13 24 -4 17 -4 17
-12 0z"/>
<path d="M17552 10914 c3 -17 21 -21 26 -6 1 5 -4 12 -13 16 -11 4 -15 1 -13
-10z"/>
<path d="M1 10904 c0 -11 3 -14 6 -6 3 7 2 16 -1 19 -3 4 -6 -2 -5 -13z"/>
<path d="M3790 10905 c0 -8 5 -15 10 -15 6 0 10 7 10 15 0 8 -4 15 -10 15 -5
0 -10 -7 -10 -15z"/>
<path d="M3972 10881 c-31 -27 -49 -75 -32 -86 15 -9 12 -25 -5 -25 -8 0 -15
5 -15 12 0 6 -9 3 -20 -7 -17 -16 -24 -16 -44 -6 -16 9 -30 10 -42 4 -11 -5
-65 -10 -121 -11 -94 -2 -102 -1 -108 18 -3 11 -12 20 -18 20 -22 -1 -49 -28
-45 -47 5 -28 162 -40 234 -17 39 12 70 15 113 10 38 -4 68 -2 85 5 20 10 32
10 52 0 48 -21 85 9 49 39 -16 14 -14 33 11 84 19 39 20 37 -25 35 -25 -2 -50
-12 -69 -28z"/>
<path d="M3138 10863 c-26 -21 -72 -56 -102 -78 -30 -22 -55 -43 -56 -47 0 -4
87 -6 193 -4 159 2 192 5 192 17 0 8 -13 16 -30 19 -28 5 -30 8 -28 48 2 38 0
42 -23 42 -13 0 -24 -4 -24 -10 0 -5 -11 -17 -24 -25 -20 -14 -28 -14 -45 -3
-26 16 -26 24 0 31 13 4 19 12 17 23 -5 29 -21 26 -70 -13z"/>
<path d="M3665 10891 c-3 -5 -1 -12 5 -16 12 -7 30 2 30 16 0 12 -27 12 -35 0z"/>
<path d="M5932 10888 c-19 -19 -14 -46 9 -59 24 -12 39 0 39 33 0 23 -33 41
-48 26z"/>
<path d="M3555 10870 c-4 -6 -3 -16 3 -22 6 -6 12 -6 17 2 4 6 3 16 -3 22 -6
6 -12 6 -17 -2z"/>
<path d="M4323 10844 c-13 -14 -23 -39 -23 -55 l0 -29 -80 3 c-74 2 -81 4 -86
25 -4 12 -10 22 -14 22 -4 0 -10 -10 -14 -22 -9 -36 17 -47 113 -46 47 0 125
-3 174 -7 77 -7 87 -6 87 9 0 10 -8 16 -24 16 -24 0 -76 41 -76 61 0 6 -6 9
-14 6 -10 -4 -16 2 -18 18 l-3 24 -22 -25z"/>
<path d="M4530 10848 c0 -31 14 -50 32 -46 8 2 26 -10 40 -26 14 -17 30 -26
36 -22 18 11 14 51 -7 77 -17 21 -21 22 -36 9 -16 -13 -19 -12 -33 8 -19 28
-32 28 -32 0z"/>
<path d="M10910 10845 c-33 -24 -33 -25 -9 -25 34 0 68 25 53 39 -7 8 -20 4
-44 -14z"/>
<path d="M12841 10832 c-29 -25 -32 -33 -27 -59 6 -28 4 -31 -23 -36 -41 -8
-58 -1 -65 29 -4 13 -11 24 -16 24 -27 0 6 -69 37 -76 29 -8 71 3 91 22 11 12
17 13 22 3 11 -17 100 -29 225 -30 61 -1 116 -1 123 0 20 2 14 29 -10 42 -27
15 -187 13 -226 -2 -26 -10 -82 5 -82 21 0 10 26 31 42 34 13 1 18 8 18 23 0
4 -5 2 -11 -4 -9 -9 -17 -6 -31 13 -24 30 -25 30 -67 -4z"/>
<path d="M2535 10840 c-3 -5 1 -10 9 -10 8 0 18 5 21 10 3 6 -1 10 -9 10 -8 0
-18 -4 -21 -10z"/>
<path d="M13700 10802 c0 -14 8 -22 23 -24 16 -2 23 -11 27 -36 7 -46 24 -45
28 2 3 38 -6 58 -30 62 -7 1 -21 5 -30 9 -14 5 -18 2 -18 -13z"/>
<path d="M11323 10792 c-36 -4 -56 -22 -48 -45 5 -10 28 -16 88 -21 45 -3 93
-7 107 -8 21 -3 25 2 28 27 3 30 3 30 -45 29 -26 -1 -59 3 -73 10 -14 6 -39
10 -57 8z"/>
<path d="M11760 10775 c-7 -8 -19 -15 -26 -15 -8 0 -14 -10 -14 -25 0 -21 5
-25 30 -25 28 0 30 2 30 40 0 44 -2 47 -20 25z"/>
<path d="M11979 10776 c16 -19 44 -21 39 -3 -3 6 -15 14 -28 15 -21 3 -22 2
-11 -12z"/>
<path d="M6580 10765 c-9 -11 -22 -14 -42 -10 -25 6 -28 4 -28 -21 0 -32 33
-64 60 -57 20 5 50 -12 50 -28 0 -4 -16 -13 -35 -20 -19 -7 -35 -16 -35 -19 0
-10 -334 1 -346 11 -6 5 -19 7 -27 3 -10 -3 -21 2 -29 15 -17 27 -26 27 -30
-1 -2 -16 -13 -25 -37 -32 -29 -8 -36 -7 -50 12 -14 19 -20 20 -62 11 -27 -6
-57 -21 -70 -35 l-23 -25 319 5 c176 3 331 6 345 7 14 1 84 -3 155 -10 146
-12 685 -21 685 -11 0 14 -79 30 -144 30 -61 0 -67 2 -78 24 -13 29 -38 42
-49 25 -10 -17 -34 -5 -34 17 0 14 -7 19 -30 20 -16 1 -31 6 -33 13 -2 6 -8 8
-14 5 -6 -4 -5 -10 3 -15 27 -16 -9 -31 -98 -40 -48 -5 -94 -11 -101 -14 -18
-6 -61 27 -84 65 -10 17 -23 30 -30 30 -7 0 -21 14 -30 30 -19 34 -57 41 -78
15z m75 -35 c3 -5 1 -10 -4 -10 -6 0 -11 5 -11 10 0 6 2 10 4 10 3 0 8 -4 11
-10z"/>
<path d="M11895 10770 c-3 -5 1 -10 9 -10 9 0 16 5 16 10 0 6 -4 10 -9 10 -6
0 -13 -4 -16 -10z"/>
<path d="M6755 10760 c-8 -13 25 -70 41 -70 8 0 30 7 50 15 19 8 38 14 41 14
14 -1 15 21 1 25 -7 2 -22 7 -33 11 -29 11 -94 14 -100 5z"/>
<path d="M10760 10760 c-12 -8 -12 -10 4 -16 11 -4 24 0 34 10 15 15 15 16 -3
16 -11 0 -27 -4 -35 -10z"/>
<path d="M10882 10758 c5 -15 28 -23 28 -10 0 5 -7 13 -16 16 -10 4 -14 1 -12
-6z"/>
<path d="M12040 10746 c0 -10 -9 -20 -20 -23 -11 -3 -20 -9 -20 -14 0 -5 9
-10 20 -10 11 -1 26 -2 33 -3 7 -1 11 9 9 24 -4 31 -22 52 -22 26z"/>
<path d="M11656 10735 c-3 -8 -1 -15 4 -15 6 0 10 7 10 15 0 8 -2 15 -4 15 -2
0 -6 -7 -10 -15z"/>
<path d="M41 10706 l-22 -23 32 -7 c17 -3 55 -6 83 -5 44 0 48 2 26 10 -13 6
-31 16 -40 23 -30 27 -55 27 -79 2z"/>
<path d="M6260 10720 c0 -5 5 -10 10 -10 6 0 10 5 10 10 0 6 -4 10 -10 10 -5
0 -10 -4 -10 -10z"/>
<path d="M4960 10700 c-19 -4 -38 -6 -42 -4 -5 3 -12 -5 -17 -18 -17 -45 -33
-51 -113 -39 -132 21 -177 19 -270 -7 -48 -14 -85 -29 -82 -34 6 -9 424 -11
448 -2 9 3 16 14 16 23 0 33 22 41 115 41 49 0 115 3 145 7 l55 7 -70 13
c-105 20 -146 23 -185 13z"/>
<path d="M12056 10638 c-13 -22 -29 -23 -46 -3 -16 19 -80 20 -80 1 0 -7 7
-19 15 -26 15 -12 16 -35 2 -57 -6 -10 2 -13 33 -13 22 0 49 -6 60 -12 17 -11
26 -10 51 5 42 23 66 21 85 -7 8 -14 30 -29 47 -35 42 -13 291 -19 295 -7 2 5
-15 16 -38 23 -23 8 -50 23 -61 34 -25 25 -49 24 -56 -1 -4 -13 -14 -20 -30
-20 -20 0 -24 3 -17 18 4 9 8 29 9 43 1 14 5 30 8 36 9 14 -2 43 -15 43 -13 0
-72 -33 -76 -42 -8 -17 -39 -7 -50 16 -9 21 -17 23 -67 22 -44 0 -60 -5 -69
-18z m24 -38 c0 -5 -6 -10 -14 -10 -8 0 -18 5 -21 10 -3 6 3 10 14 10 12 0 21
-4 21 -10z"/>
<path d="M10986 10641 c-9 -14 5 -42 18 -38 15 5 14 39 -1 44 -6 2 -14 0 -17
-6z"/>
<path d="M11256 10635 c-18 -13 -17 -14 8 -21 33 -8 45 2 25 21 -12 12 -17 12
-33 0z"/>
<path d="M11765 10640 c-18 -7 -18 -8 8 -15 30 -8 43 -2 32 14 -7 13 -12 13
-40 1z"/>
<path d="M11401 10621 c12 -10 31 -16 41 -13 38 9 11 32 -39 32 l-25 0 23 -19z"/>
<path d="M11590 10630 c20 -13 70 -13 70 0 0 6 -19 10 -42 10 -32 0 -39 -3
-28 -10z"/>
<path d="M10840 10610 c0 -5 5 -10 10 -10 6 0 10 5 10 10 0 6 -4 10 -10 10 -5
0 -10 -4 -10 -10z"/>
<path d="M15215 10599 c-9 -14 27 -26 93 -32 43 -3 71 -12 85 -25 35 -31 167
-73 205 -66 39 8 50 22 25 30 -10 3 -44 17 -76 30 -32 13 -66 24 -76 24 -10 0
-29 8 -42 19 -18 13 -47 19 -117 23 -51 3 -95 2 -97 -3z"/>
<path d="M11853 10593 c9 -2 23 -2 30 0 6 3 -1 5 -18 5 -16 0 -22 -2 -12 -5z"/>
<path d="M11080 10583 c-24 -3 -47 -8 -50 -11 -8 -11 -97 -32 -135 -32 -59 0
-39 -17 28 -24 108 -12 357 -16 357 -6 0 10 -11 13 -90 28 -39 7 -45 11 -42
30 2 14 -2 21 -10 20 -7 -1 -33 -3 -58 -5z"/>
<path d="M16305 10559 c-8 -12 -9 -11 28 -27 23 -10 29 -9 34 4 10 27 -47 48
-62 23z"/>
<path d="M17645 10549 c-10 -15 1 -23 20 -15 9 3 13 10 10 16 -8 13 -22 13
-30 -1z"/>
<path d="M12723 10519 c-18 -11 -33 -24 -33 -29 0 -10 165 -24 180 -15 28 17
-12 50 -75 59 -31 5 -47 1 -72 -15z"/>
<path d="M13403 10523 c-13 -2 -23 -9 -23 -14 0 -12 60 -2 75 12 9 9 -11 10
-52 2z"/>
<path d="M11830 10510 c-12 -8 -10 -10 10 -9 14 0 34 4 45 9 17 7 16 9 -10 9
-16 0 -37 -4 -45 -9z"/>
<path d="M14088 10473 c7 -3 16 -2 19 1 4 3 -2 6 -13 5 -11 0 -14 -3 -6 -6z"/>
<path d="M10175 10440 c-3 -5 -19 -10 -36 -10 -16 0 -29 -4 -29 -10 0 -5 13
-10 28 -10 33 0 71 23 54 34 -6 3 -13 2 -17 -4z"/>
<path d="M4712 10433 c-19 -8 -4 -23 24 -23 16 0 24 5 22 13 -5 13 -26 18 -46
10z"/>
<path d="M15805 10430 c3 -5 13 -10 21 -10 8 0 14 5 14 10 0 6 -9 10 -21 10
-11 0 -17 -4 -14 -10z"/>
<path d="M17024 10409 c-6 -10 23 -19 62 -19 20 0 33 4 30 9 -7 11 -86 19 -92
10z"/>
<path d="M17225 10410 c-18 -8 -17 -9 8 -9 15 -1 27 4 27 9 0 12 -8 12 -35 0z"/>
<path d="M13010 10380 c0 -5 14 -10 31 -10 17 0 28 4 24 10 -3 6 -17 10 -31
10 -13 0 -24 -4 -24 -10z"/>
<path d="M158 10268 c-15 -22 -18 -22 -62 -10 -72 19 -96 16 -96 -11 0 -22 3
-23 98 -25 54 -2 109 1 122 6 15 6 38 5 58 0 25 -7 1340 -13 1622 -8 14 1 54
-1 88 -2 64 -3 98 11 70 29 -19 12 -470 13 -485 1 -8 -6 -19 -6 -32 1 -13 7
-107 11 -258 11 -131 0 -249 0 -263 1 -77 2 -192 -2 -237 -9 -32 -6 -58 -5
-70 2 -19 10 -76 14 -323 21 -85 2 -169 6 -186 10 -25 6 -33 3 -46 -17z"/>
<path d="M2759 10226 c-26 -28 -9 -32 35 -8 36 20 36 20 10 25 -18 3 -32 -2
-45 -17z"/>
<path d="M2871 10231 c-11 -7 -10 -11 7 -20 31 -17 82 -14 82 4 0 9 -9 15 -24
15 -13 0 -30 2 -38 5 -7 3 -19 1 -27 -4z"/>
<path d="M3185 10230 c-4 -6 12 -10 42 -10 35 0 44 3 33 10 -20 13 -67 13 -75
0z"/>
<path d="M3285 10230 c-3 -6 1 -13 10 -16 19 -8 30 0 20 15 -8 14 -22 14 -30
1z"/>
<path d="M11374 10225 c-19 -14 -18 -14 4 -15 13 0 22 6 22 15 0 19 -1 19 -26
0z"/>
<path d="M2310 10215 c0 -19 21 -19 46 0 18 14 17 14 -13 15 -23 0 -33 -5 -33
-15z"/>
<path d="M2560 10220 c0 -5 14 -10 30 -10 17 0 30 5 30 10 0 6 -13 10 -30 10
-16 0 -30 -4 -30 -10z"/>
<path d="M3060 10216 c10 -9 29 -12 53 -9 55 8 45 23 -15 23 -45 0 -50 -2 -38
-14z"/>
<path d="M3440 10215 c0 -8 9 -15 20 -15 11 0 20 7 20 15 0 8 -9 15 -20 15
-11 0 -20 -7 -20 -15z"/>
<path d="M5483 10223 c-37 -7 -26 -20 21 -26 50 -7 146 2 146 14 0 14 -41 21
-55 9 -8 -6 -18 -9 -23 -6 -14 8 -65 13 -89 9z"/>
<path d="M10420 10219 c0 -5 5 -7 10 -4 6 3 10 8 10 11 0 2 -4 4 -10 4 -5 0
-10 -5 -10 -11z"/>
<path d="M3915 10210 c-3 -5 3 -10 15 -10 12 0 18 5 15 10 -3 6 -10 10 -15 10
-5 0 -12 -4 -15 -10z"/>
<path d="M3995 10210 c-4 -6 6 -10 22 -10 22 0 25 2 13 10 -19 12 -27 12 -35
0z"/>
<path d="M4223 10213 c-7 -3 -13 -9 -13 -14 0 -6 38 -9 90 -8 50 1 89 4 86 6
-13 13 -89 23 -101 13 -9 -8 -20 -8 -32 -2 -10 5 -24 7 -30 5z"/>
<path d="M4975 10210 c-3 -5 3 -10 15 -10 12 0 18 5 15 10 -3 6 -10 10 -15 10
-5 0 -12 -4 -15 -10z"/>
<path d="M5065 10210 c-3 -5 3 -10 14 -10 12 0 21 5 21 10 0 6 -6 10 -14 10
-8 0 -18 -4 -21 -10z"/>
<path d="M5175 10210 c-4 -6 15 -10 49 -10 31 0 56 5 56 10 0 6 -22 10 -49 10
-28 0 -53 -4 -56 -10z"/>
<path d="M6195 10210 c-3 -5 -1 -10 4 -10 6 0 11 5 11 10 0 6 -2 10 -4 10 -3
0 -8 -4 -11 -10z"/>
<path d="M4678 10203 c6 -2 18 -2 25 0 6 3 1 5 -13 5 -14 0 -19 -2 -12 -5z"/>
<path d="M5348 10203 c6 -2 18 -2 25 0 6 3 1 5 -13 5 -14 0 -19 -2 -12 -5z"/>
<path d="M5783 10203 c9 -2 25 -2 35 0 9 3 1 5 -18 5 -19 0 -27 -2 -17 -5z"/>
<path d="M5890 10200 c20 -13 50 -13 50 0 0 6 -15 10 -32 10 -25 0 -29 -3 -18
-10z"/>
<path d="M6800 10200 c0 -5 4 -10 9 -10 6 0 13 5 16 10 3 6 -1 10 -9 10 -9 0
-16 -4 -16 -10z"/>
<path d="M6975 10200 c-11 -19 6 -30 46 -30 47 0 51 14 8 29 -39 14 -46 14
-54 1z"/>
<path d="M7270 10200 c-12 -8 -12 -10 3 -16 21 -8 35 2 21 16 -5 5 -15 6 -24
0z"/>
<path d="M17775 10200 c-3 -5 -1 -10 4 -10 6 0 11 5 11 10 0 6 -2 10 -4 10 -3
0 -8 -4 -11 -10z"/>
<path d="M17440 10185 c0 -8 7 -15 15 -15 8 0 15 7 15 15 0 8 -7 15 -15 15 -8
0 -15 -7 -15 -15z"/>
<path d="M10440 10175 c0 -13 8 -16 38 -13 20 2 37 8 37 13 0 6 -17 11 -37 13
-30 3 -38 0 -38 -13z"/>
<path d="M13717 10179 c-23 -14 -5 -39 28 -39 26 0 39 22 22 39 -14 14 -27 14
-50 0z"/>
<path d="M10700 10170 c0 -5 19 -10 43 -10 31 0 38 3 27 10 -20 13 -70 13 -70
0z"/>
<path d="M14124 10168 c-5 -8 18 -12 44 -9 8 1 20 -3 28 -10 11 -9 14 -9 14 1
0 8 10 10 34 6 35 -7 66 0 66 14 0 11 -180 8 -186 -2z"/>
<path d="M14345 10170 c4 -6 11 -8 16 -5 14 9 11 15 -7 15 -8 0 -12 -5 -9 -10z"/>
<path d="M14758 10169 c-6 -4 -2 -11 9 -18 27 -14 173 0 173 17 0 9 -168 9
-182 1z"/>
<path d="M15096 10171 c-7 -10 70 -22 92 -13 13 5 12 7 -4 13 -27 11 -82 11
-88 0z"/>
<path d="M15225 10170 c3 -5 8 -10 11 -10 2 0 4 5 4 10 0 6 -5 10 -11 10 -5 0
-7 -4 -4 -10z"/>
<path d="M15285 10170 c-8 -13 40 -42 67 -39 13 1 36 -2 52 -6 18 -5 42 -3 64
5 27 9 39 9 56 0 25 -13 89 -2 84 15 -2 5 -9 8 -17 7 -7 -2 -20 0 -30 4 -23
10 -94 12 -106 3 -9 -6 -31 -4 -137 15 -15 3 -30 1 -33 -4z"/>
<path d="M17355 10165 c-20 -9 -75 -14 -162 -14 -72 -1 -138 -4 -146 -7 -9 -3
-24 -1 -34 4 -10 5 -56 6 -108 1 -69 -5 -100 -4 -133 8 -32 10 -51 12 -72 5
-15 -6 -55 -8 -89 -5 -33 3 -73 1 -88 -5 -15 -6 -40 -13 -55 -16 -23 -5 -28
-3 -28 14 0 11 -4 20 -9 20 -14 0 -22 -16 -15 -33 4 -12 31 -14 147 -13 78 1
157 -2 175 -6 36 -10 384 -13 477 -4 194 18 233 28 200 53 -22 15 -21 15 -60
-2z"/>
<path d="M10840 10160 c0 -6 25 -10 58 -9 43 1 51 3 32 9 -36 12 -90 12 -90 0z"/>
<path d="M11865 10160 c3 -5 8 -10 11 -10 2 0 4 5 4 10 0 6 -5 10 -11 10 -5 0
-7 -4 -4 -10z"/>
<path d="M13582 10157 c-28 -16 -19 -27 22 -27 37 0 61 14 52 29 -9 15 -45 13
-74 -2z"/>
<path d="M15677 10163 c-20 -19 -5 -31 31 -26 45 7 51 11 32 23 -17 11 -54 13
-63 3z"/>
<path d="M16040 10160 c0 -5 7 -10 15 -10 8 0 15 5 15 10 0 6 -7 10 -15 10 -8
0 -15 -4 -15 -10z"/>
<path d="M16094 10159 c-3 -6 3 -20 14 -31 26 -26 67 -18 69 13 2 17 -2 20
-22 15 -13 -3 -27 -2 -30 4 -8 13 -22 13 -31 -1z"/>
<path d="M16240 10148 c-11 -12 -18 -23 -16 -25 10 -10 71 15 74 30 5 25 -33
22 -58 -5z"/>
<path d="M17511 10160 c-12 -7 -12 -11 2 -24 19 -19 108 -22 156 -5 49 17 19
29 -56 22 -39 -4 -67 -2 -76 5 -7 6 -18 7 -26 2z"/>
<path d="M18221 10155 c-17 -10 -61 -12 -170 -8 -128 4 -149 2 -161 -12 -24
-29 7 -35 187 -35 168 0 208 4 198 20 -3 5 4 6 15 3 11 -3 20 -9 20 -14 0 -5
11 -9 25 -9 16 0 25 6 25 15 0 8 -8 15 -19 15 -10 0 -30 9 -44 20 -29 23 -42
24 -76 5z"/>
<path d="M11640 10150 c0 -5 9 -10 20 -10 11 0 20 5 20 10 0 6 -9 10 -20 10
-11 0 -20 -4 -20 -10z"/>
<path d="M12930 10140 c0 -5 5 -10 11 -10 5 0 7 5 4 10 -3 6 -8 10 -11 10 -2
0 -4 -4 -4 -10z"/>
<path d="M15760 10133 c0 -8 12 -13 30 -13 17 0 30 4 30 9 0 5 -13 11 -30 13
-20 3 -30 0 -30 -9z"/>
<path d="M15920 10141 c0 -13 19 -18 52 -13 42 6 34 22 -12 22 -22 0 -40 -4
-40 -9z"/>
<path d="M9306 9345 c-11 -8 -27 -15 -35 -15 -10 0 -17 -10 -17 -25 -1 -14 1
-25 5 -25 10 0 55 31 69 48 25 32 11 42 -22 17z"/>
<path d="M9575 9273 c5 -10 25 -68 45 -128 21 -61 47 -130 59 -154 13 -24 39
-107 58 -185 20 -77 49 -169 65 -204 15 -35 28 -70 28 -79 0 -8 4 -12 9 -8 11
6 3 38 -33 123 -15 35 -32 89 -37 120 -17 88 -128 411 -170 495 -19 37 -38 53
-24 20z"/>
<path d="M8950 9145 c0 -8 5 -15 10 -15 6 0 10 7 10 15 0 8 -4 15 -10 15 -5 0
-10 -7 -10 -15z"/>
<path d="M7645 8650 c3 -5 8 -10 11 -10 2 0 4 5 4 10 0 6 -5 10 -11 10 -5 0
-7 -4 -4 -10z"/>
<path d="M8475 8510 c3 -5 10 -10 16 -10 5 0 9 5 9 10 0 6 -7 10 -16 10 -8 0
-12 -4 -9 -10z"/>
<path d="M7895 8430 c-3 -5 -1 -10 4 -10 6 0 11 5 11 10 0 6 -2 10 -4 10 -3 0
-8 -4 -11 -10z"/>
<path d="M8251 8274 c6 -8 18 -14 26 -14 20 0 8 16 -17 23 -17 4 -19 3 -9 -9z"/>
<path d="M16140 8030 c0 -17 4 -19 28 -14 39 10 46 15 31 25 -27 17 -59 10
-59 -11z"/>
<path d="M16573 7843 c15 -2 37 -2 50 0 12 2 0 4 -28 4 -27 0 -38 -2 -22 -4z"/>
<path d="M17760 7630 c0 -14 46 -23 77 -15 21 5 24 8 12 16 -19 12 -89 12 -89
-1z"/>
<path d="M17195 7540 c-4 -6 8 -10 29 -10 20 0 36 5 36 10 0 6 -13 10 -29 10
-17 0 -33 -4 -36 -10z"/>
<path d="M1285 7510 c-37 -8 -20 -16 48 -23 51 -5 69 6 38 22 -22 12 -41 12
-86 1z"/>
<path d="M18328 7423 c-26 -7 -22 -18 7 -19 15 -1 25 3 25 12 0 14 -3 15 -32
7z"/>
<path d="M840 7356 c0 -18 37 -27 50 -12 13 16 3 26 -27 26 -13 0 -23 -6 -23
-14z"/>
<path d="M15225 7254 c-11 -3 -30 -7 -42 -10 -13 -2 -23 -9 -23 -15 0 -10 25
-11 230 -8 64 0 102 11 83 22 -13 8 -222 17 -248 11z"/>
<path d="M15920 7030 c0 -5 14 -10 30 -10 17 0 30 5 30 10 0 6 -13 10 -30 10
-16 0 -30 -4 -30 -10z"/>
<path d="M16070 6960 c-11 -7 4 -10 50 -10 46 0 61 3 50 10 -8 5 -31 10 -50
10 -19 0 -42 -5 -50 -10z"/>
<path d="M16668 6859 c24 -4 52 -4 65 1 16 6 5 9 -43 8 -63 0 -64 0 -22 -9z"/>
<path d="M18100 6812 c-105 -5 -97 -22 11 -21 115 1 178 19 79 23 -14 1 -54 0
-90 -2z"/>
<path d="M17528 6403 c7 -3 16 -2 19 1 4 3 -2 6 -13 5 -11 0 -14 -3 -6 -6z"/>
<path d="M705 6390 c-3 -5 -1 -10 4 -10 6 0 11 5 11 10 0 6 -2 10 -4 10 -3 0
-8 -4 -11 -10z"/>
<path d="M735 6390 c3 -5 8 -10 11 -10 2 0 4 5 4 10 0 6 -5 10 -11 10 -5 0 -7
-4 -4 -10z"/>
<path d="M760 6390 c0 -5 12 -10 26 -10 14 0 23 4 19 10 -3 6 -15 10 -26 10
-10 0 -19 -4 -19 -10z"/>
<path d="M0 6340 c0 -18 5 -20 45 -17 58 5 64 12 24 26 -48 17 -69 14 -69 -9z"/>
<path d="M15470 6002 c8 -6 33 -13 55 -17 31 -6 37 -5 29 5 -6 6 -31 14 -55
16 -31 4 -39 2 -29 -4z"/>
<path d="M240 5981 c0 -10 47 -21 54 -13 3 3 3 9 0 13 -7 12 -54 12 -54 0z"/>
<path d="M979 5944 c-11 -14 -8 -15 32 -10 24 2 53 5 64 6 14 2 11 5 -10 10
-49 12 -72 11 -86 -6z"/>
<path d="M1260 5949 c0 -7 34 -15 80 -18 14 -1 36 -3 50 -4 16 -1 25 3 25 13
0 12 -16 15 -77 16 -43 0 -78 -3 -78 -7z"/>
<path d="M16160 5950 c0 -5 22 -10 49 -10 28 0 53 5 56 10 4 6 -15 10 -49 10
-31 0 -56 -4 -56 -10z"/>
<path d="M938 5933 c7 -3 16 -2 19 1 4 3 -2 6 -13 5 -11 0 -14 -3 -6 -6z"/>
<path d="M16945 5842 c-30 -6 -39 -19 -17 -24 10 -3 26 0 36 7 20 15 10 23
-19 17z"/>
<path d="M17699 5609 c16 -6 28 -6 35 1 7 7 -1 10 -24 9 -33 0 -34 -1 -11 -10z"/>
<path d="M18323 5533 c9 -2 23 -2 30 0 6 3 -1 5 -18 5 -16 0 -22 -2 -12 -5z"/>
<path d="M17150 5351 c-102 -20 -51 -42 60 -28 130 18 509 5 815 -27 l60 -6
-50 15 c-27 8 -65 15 -84 15 -18 0 -59 6 -90 14 -61 16 -644 29 -711 17z"/>
<path d="M15511 5346 c12 -10 59 -15 59 -6 0 5 -14 10 -32 10 -17 0 -29 -2
-27 -4z"/>
<path d="M16835 5310 c-4 -6 0 -13 8 -16 24 -9 110 0 114 12 5 15 -113 18
-122 4z"/>
<path d="M15938 5273 c-10 -2 -18 -11 -18 -20 0 -13 7 -14 43 -8 23 4 58 7 79
7 20 -1 41 5 48 13 11 13 3 15 -61 14 -41 -1 -82 -3 -91 -6z"/>
<path d="M16125 5250 c8 -13 35 -13 55 0 11 7 5 10 -23 10 -23 0 -36 -4 -32
-10z"/>
<path d="M17933 5133 c15 -2 37 -2 50 0 12 2 0 4 -28 4 -27 0 -38 -2 -22 -4z"/>
<path d="M16720 5121 c0 -12 38 -21 57 -14 12 5 12 7 1 14 -17 11 -58 11 -58
0z"/>
<path d="M15668 5043 c12 -2 32 -2 45 0 12 2 2 4 -23 4 -25 0 -35 -2 -22 -4z"/>
<path d="M15973 5024 c-7 -19 21 -44 49 -44 21 0 24 30 6 48 -17 17 -48 15
-55 -4z"/>
<path d="M16180 5001 c0 -21 7 -34 22 -42 18 -10 24 -8 39 12 21 28 11 43 -33
54 -26 7 -28 5 -28 -24z"/>
<path d="M27 4963 c-26 -4 -34 -29 -9 -27 7 1 38 2 70 3 57 3 57 3 27 16 -31
14 -39 15 -88 8z"/>
<path d="M602 4957 c-53 -16 -33 -32 34 -28 73 4 102 17 59 26 -54 11 -60 11
-93 2z"/>
<path d="M17413 4932 c-8 -8 -12 -16 -10 -19 8 -7 262 20 272 29 6 6 -41 8
-119 7 -95 -2 -132 -7 -143 -17z"/>
<path d="M17303 4908 c21 -7 32 -7 40 1 8 8 0 11 -28 10 -40 -1 -40 -1 -12
-11z"/>
<path d="M15982 4901 c-10 -6 -4 -10 18 -15 37 -7 82 2 74 15 -7 11 -75 11
-92 0z"/>
<path d="M15535 4881 c-17 -7 -16 -9 13 -16 37 -8 55 1 32 15 -17 11 -18 11
-45 1z"/>
<path d="M17633 4828 c-5 -10 -11 -9 78 -15 48 -3 79 -1 83 6 4 6 -7 12 -26
15 -44 7 -129 3 -135 -6z"/>
<path d="M18115 4809 c-22 -5 -63 -15 -92 -21 -29 -6 -50 -15 -47 -20 6 -9
233 -11 323 -2 56 6 62 9 59 28 -3 20 -10 21 -103 23 -55 1 -118 -3 -140 -8z"/>
<path d="M15783 4747 c9 -8 17 -16 17 -19 0 -3 -394 -12 -517 -11 -24 0 -43
-3 -43 -7 0 -12 98 -20 319 -25 174 -4 213 -2 258 12 46 14 59 15 86 4 87 -36
157 -38 112 -4 -20 15 -19 15 3 8 28 -8 107 4 95 15 -4 4 -66 13 -138 19 -71
7 -148 14 -170 17 -36 4 -38 3 -22 -9z"/>
<path d="M16537 4743 c-46 -7 -25 -26 49 -45 95 -24 458 -37 431 -15 -12 10
-58 17 -150 21 -108 6 -207 20 -290 40 -7 2 -25 1 -40 -1z"/>
<path d="M15083 4725 c-36 -10 -37 -11 -13 -18 53 -14 184 1 140 16 -32 12
-90 12 -127 2z"/>
<path d="M16235 4721 c-16 -3 -29 -8 -27 -11 1 -3 5 -15 8 -27 8 -29 36 -34
172 -29 116 4 148 11 94 22 -17 3 -33 12 -36 19 -11 29 -131 43 -211 26z"/>
<path d="M13998 4635 c-11 -12 1 -25 22 -25 10 0 25 -7 33 -15 13 -12 37 -14
141 -8 69 3 126 10 126 15 0 4 -3 8 -7 8 -35 2 -218 20 -258 25 -27 4 -53 4
-57 0z"/>
<path d="M15120 4620 c-11 -7 -7 -10 18 -10 17 0 32 5 32 10 0 13 -30 13 -50
0z"/>
<path d="M15192 4605 c-11 -13 -10 -15 5 -16 10 -1 36 -3 58 -5 159 -13 303
-8 250 9 -16 5 -273 28 -295 27 -3 -1 -11 -7 -18 -15z"/>
<path d="M13900 4601 c0 -6 14 -14 32 -19 36 -9 94 -4 81 8 -14 13 -113 22
-113 11z"/>
<path d="M14430 4560 c20 -13 53 -13 45 0 -3 6 -18 10 -33 10 -21 0 -24 -2
-12 -10z"/>
<path d="M16895 4358 c-27 -4 -72 -12 -100 -17 -46 -8 -86 -16 -245 -51 -30
-6 -66 -14 -79 -16 -14 -3 -20 -9 -15 -14 11 -10 143 4 234 26 36 8 83 18 105
22 23 5 46 12 53 16 7 4 56 10 108 12 99 4 118 9 109 25 -7 11 -101 10 -170
-3z"/>
<path d="M17260 4259 c-25 -10 -71 -21 -102 -25 -37 -4 -58 -11 -58 -19 0 -10
18 -12 68 -10 37 2 69 4 72 5 3 2 19 3 35 4 20 1 29 6 27 15 -2 11 0 12 10 3
18 -14 57 -11 51 4 -7 18 14 26 37 14 12 -6 31 -10 43 -8 20 3 20 5 -8 20 -39
21 -118 20 -175 -3z"/>
<path d="M17690 4271 c0 -10 51 -22 63 -14 4 2 5 9 2 14 -8 12 -65 12 -65 0z"/>
<path d="M17640 4235 c-11 -13 -8 -15 19 -15 29 0 31 2 17 15 -8 8 -17 15 -19
15 -3 0 -10 -7 -17 -15z"/>
<path d="M575 4230 c-3 -5 1 -10 9 -10 9 0 16 5 16 10 0 6 -4 10 -9 10 -6 0
-13 -4 -16 -10z"/>
<path d="M515 4220 c3 -5 13 -10 21 -10 8 0 14 5 14 10 0 6 -9 10 -21 10 -11
0 -17 -4 -14 -10z"/>
<path d="M16863 4188 c-18 -20 -18 -20 79 -16 64 2 102 9 110 17 11 11 3 13
-43 8 -32 -3 -73 -2 -92 3 -30 6 -39 4 -54 -12z"/>
<path d="M880 4175 c0 -9 9 -15 21 -15 18 0 19 2 9 15 -7 8 -16 15 -21 15 -5
0 -9 -7 -9 -15z"/>
<path d="M15145 4105 l-30 -13 31 -1 c49 -1 124 11 124 20 0 14 -92 10 -125
-6z"/>
<path d="M18253 4073 c9 -2 25 -2 35 0 9 3 1 5 -18 5 -19 0 -27 -2 -17 -5z"/>
<path d="M250 4021 c-40 -8 -106 -36 -114 -50 -9 -14 31 -20 91 -12 41 6 60
14 74 32 9 13 15 27 13 31 -6 9 -11 9 -64 -1z"/>
<path d="M517 4003 c-10 -9 -9 -23 1 -23 5 0 17 7 28 15 19 14 19 14 -2 15
-11 0 -24 -3 -27 -7z"/>
<path d="M705 3994 c-11 -3 -30 -7 -42 -10 -13 -2 -23 -11 -23 -19 0 -8 -4
-15 -10 -15 -5 0 -10 -5 -10 -11 0 -6 10 -9 23 -7 12 2 21 9 20 16 -4 15 24
16 29 2 2 -6 25 -13 52 -16 27 -2 67 -9 89 -14 23 -5 44 -6 47 -1 3 4 37 5 75
2 55 -5 75 -11 93 -29 15 -15 33 -22 50 -21 15 2 36 -1 48 -4 12 -4 32 -3 45
2 22 8 19 10 -30 25 -30 9 -62 16 -71 16 -8 0 -25 6 -36 14 -48 34 -293 83
-349 70z"/>
<path d="M15550 3970 c-8 -5 -30 -10 -49 -10 -19 0 -32 -3 -28 -6 12 -12 242
-19 302 -10 11 2 36 4 55 5 20 0 30 5 25 10 -6 4 -45 5 -90 0 -54 -6 -89 -5
-107 2 -15 6 -34 9 -43 6 -8 -4 -17 -2 -20 3 -8 13 -26 12 -45 0z"/>
<path d="M15943 3959 c11 -7 23 -7 35 0 14 9 11 10 -18 10 -29 0 -32 -1 -17
-10z"/>
<path d="M16125 3920 c11 -5 36 -8 55 -8 l35 0 -30 8 c-16 4 -41 8 -55 8 -23
1 -23 0 -5 -8z"/>
<path d="M16295 3889 c22 -4 54 -8 70 -7 l30 0 -30 8 c-16 4 -48 8 -70 8 l-40
0 40 -9z"/>
<path d="M18340 3850 c0 -5 5 -10 10 -10 6 0 10 5 10 10 0 6 -4 10 -10 10 -5
0 -10 -4 -10 -10z"/>
<path d="M16150 3810 c-12 -8 -11 -10 8 -10 12 0 22 5 22 10 0 13 -11 13 -30
0z"/>
<path d="M526 3795 c-4 -12 -1 -16 14 -13 24 3 28 22 7 26 -8 2 -17 -4 -21
-13z"/>
<path d="M18202 3720 c-34 -4 -65 -10 -68 -13 -12 -11 43 -18 107 -13 35 2 76
5 92 5 17 1 27 6 27 16 0 17 -44 18 -158 5z"/>
<path d="M15328 3713 c7 -3 16 -2 19 1 4 3 -2 6 -13 5 -11 0 -14 -3 -6 -6z"/>
<path d="M15480 3683 l-25 -15 25 6 c14 3 35 6 48 6 12 0 22 5 22 10 0 14 -41
10 -70 -7z"/>
<path d="M16285 3660 c27 -12 43 -12 25 0 -8 5 -22 9 -30 9 -10 0 -8 -3 5 -9z"/>
<path d="M15558 3643 c7 -3 16 -2 19 1 4 3 -2 6 -13 5 -11 0 -14 -3 -6 -6z"/>
<path d="M15595 3640 c-3 -5 1 -10 9 -10 9 0 16 5 16 10 0 6 -4 10 -9 10 -6 0
-13 -4 -16 -10z"/>
<path d="M15723 3603 c9 -2 25 -2 35 0 9 3 1 5 -18 5 -19 0 -27 -2 -17 -5z"/>
<path d="M1060 3583 c-57 -6 -66 -11 -46 -26 18 -13 86 -12 166 1 l45 8 -40
12 c-40 12 -57 12 -125 5z"/>
<path d="M888 3563 c7 -3 16 -2 19 1 4 3 -2 6 -13 5 -11 0 -14 -3 -6 -6z"/>
<path d="M264 3485 c-10 -26 5 -32 66 -28 64 5 114 -10 140 -43 11 -12 11 -17
1 -23 -7 -4 5 -8 28 -9 22 -1 43 3 46 8 4 6 13 7 24 1 14 -8 22 -2 44 31 14
23 24 45 21 49 -2 4 -49 6 -103 4 -79 -3 -101 0 -105 11 -8 20 -154 20 -162
-1z"/>
<path d="M678 3473 c7 -3 16 -2 19 1 4 3 -2 6 -13 5 -11 0 -14 -3 -6 -6z"/>
<path d="M710 3467 c-9 -7 -14 -20 -12 -29 3 -16 17 -18 128 -18 68 0 124 4
124 9 0 12 -45 28 -114 41 -76 13 -107 12 -126 -3z"/>
<path d="M20 3440 c6 -11 18 -21 28 -22 60 -5 79 -3 95 10 12 11 17 12 17 3 0
-7 7 -19 16 -28 21 -21 44 -2 25 21 -7 8 -9 20 -5 27 5 9 -1 10 -22 5 -68 -15
-131 -18 -138 -7 -13 20 -27 12 -16 -9z"/>
<path d="M635 3430 c-8 -13 20 -24 36 -15 8 6 7 10 -2 16 -18 11 -26 11 -34
-1z"/>
<path d="M1058 3423 c-65 -5 -61 -23 5 -25 84 -2 129 4 116 16 -8 7 -76 12
-121 9z"/>
<path d="M27 3394 c-16 -16 -6 -34 19 -34 19 0 25 5 22 17 -3 19 -29 29 -41
17z"/>
<path d="M375 3380 c-7 -12 12 -12 40 0 18 8 17 9 -7 9 -15 1 -30 -3 -33 -9z"/>
<path d="M18156 3341 c-7 -11 41 -24 54 -16 6 4 10 10 10 16 0 12 -57 12 -64
0z"/>
<path d="M1032 3224 c-19 -6 -38 -17 -43 -25 -7 -12 -9 -11 -9 2 0 24 -12 26
-163 28 -117 1 -137 -1 -137 -14 0 -9 9 -15 23 -15 12 0 36 -9 53 -19 34 -21
98 -22 219 -3 44 6 66 5 85 -5 38 -20 63 -17 55 6 -5 16 1 20 35 26 24 4 39
12 37 18 -5 15 -111 16 -155 1z"/>
<path d="M1248 3200 c17 -11 32 -25 32 -30 0 -6 5 -8 10 -5 14 9 70 -4 70 -17
0 -6 -12 -7 -31 -3 -24 6 -30 4 -27 -6 6 -18 38 -22 71 -10 28 11 37 41 12 41
-7 0 -18 6 -22 13 -11 17 -72 37 -114 37 l-34 0 33 -20z"/>
<path d="M16968 3213 c6 -2 18 -2 25 0 6 3 1 5 -13 5 -14 0 -19 -2 -12 -5z"/>
<path d="M610 3161 c0 -18 18 -21 30 -6 10 13 9 15 -9 15 -11 0 -21 -4 -21 -9z"/>
<path d="M16438 3153 c6 -2 18 -2 25 0 6 3 1 5 -13 5 -14 0 -19 -2 -12 -5z"/>
<path d="M1410 3141 c0 -5 5 -13 10 -16 6 -3 10 -2 10 4 0 5 -4 13 -10 16 -5
3 -10 2 -10 -4z"/>
<path d="M1243 3133 c9 -2 23 -2 30 0 6 3 -1 5 -18 5 -16 0 -22 -2 -12 -5z"/>
<path d="M1500 3110 c0 -18 2 -19 20 -8 11 7 20 16 20 20 0 5 -9 8 -20 8 -13
0 -20 -7 -20 -20z"/>
<path d="M18162 3115 c14 -14 139 -29 173 -21 52 13 12 26 -82 26 -53 0 -94
-2 -91 -5z"/>
<path d="M418 3103 c7 -3 16 -2 19 1 4 3 -2 6 -13 5 -11 0 -14 -3 -6 -6z"/>
<path d="M15186 3081 c-4 -7 -5 -15 -2 -18 9 -9 19 4 14 18 -4 11 -6 11 -12 0z"/>
<path d="M1513 3061 c-20 -33 1 -40 100 -33 18 1 27 8 27 18 0 14 -8 16 -46
10 -36 -4 -49 -2 -58 9 -10 13 -13 13 -23 -4z"/>
<path d="M2668 3073 c18 -2 45 -2 60 0 15 2 0 4 -33 4 -33 0 -45 -2 -27 -4z"/>
<path d="M15223 3073 c9 -2 23 -2 30 0 6 3 -1 5 -18 5 -16 0 -22 -2 -12 -5z"/>
<path d="M17583 3053 c9 -2 23 -2 30 0 6 3 -1 5 -18 5 -16 0 -22 -2 -12 -5z"/>
<path d="M17608 3023 c7 -3 16 -2 19 1 4 3 -2 6 -13 5 -11 0 -14 -3 -6 -6z"/>
<path d="M17693 3023 c9 -2 25 -2 35 0 9 3 1 5 -18 5 -19 0 -27 -2 -17 -5z"/>
<path d="M15325 2930 c-18 -8 -18 -9 -2 -9 27 -1 10 -21 -19 -21 -30 0 -32
-20 -1 -21 78 -4 216 -8 237 -6 14 1 73 2 133 2 59 0 107 3 107 6 0 6 -97 20
-161 24 -14 1 -32 6 -40 11 -18 11 -191 15 -184 4 9 -14 -16 -23 -28 -11 -8 8
-7 11 4 11 12 0 12 2 -1 10 -17 11 -19 11 -45 0z m225 -20 c0 -5 -7 -10 -15
-10 -8 0 -15 5 -15 10 0 6 7 10 15 10 8 0 15 -4 15 -10z"/>
<path d="M17254 2635 c-19 -14 -18 -14 4 -15 13 0 22 6 22 15 0 19 -1 19 -26
0z"/>
<path d="M17150 2620 c0 -5 14 -10 30 -10 17 0 30 5 30 10 0 6 -13 10 -30 10
-16 0 -30 -4 -30 -10z"/>
<path d="M18205 2590 c3 -5 12 -10 19 -10 7 0 27 -7 45 -16 29 -15 73 -12 57
3 -22 22 -134 43 -121 23z"/>
<path d="M18156 2583 c-11 -11 -6 -23 8 -23 8 0 17 4 20 9 7 10 -19 23 -28 14z"/>
<path d="M77 2573 c-30 -30 31 -71 78 -53 14 5 25 7 25 3 0 -3 8 1 19 11 14
13 29 15 74 10 53 -6 56 -6 50 15 -6 23 -20 25 -98 14 -34 -4 -49 -11 -52 -24
-4 -15 -11 -17 -32 -13 -37 9 -43 14 -37 30 5 14 -15 20 -27 7z"/>
<path d="M360 2566 c0 -13 29 -26 62 -26 11 0 15 6 11 20 -4 15 -14 20 -39 20
-22 0 -34 -5 -34 -14z"/>
<path d="M520 2555 c0 -10 10 -15 29 -15 37 0 49 16 18 24 -35 9 -47 7 -47 -9z"/>
<path d="M9 2517 c5 -5 21 -7 37 -5 27 3 26 4 -8 9 -22 3 -34 1 -29 -4z"/>
<path d="M15068 2493 c7 -3 16 -2 19 1 4 3 -2 6 -13 5 -11 0 -14 -3 -6 -6z"/>
<path d="M2380 2459 c46 -12 191 -16 180 -5 -4 4 -55 10 -112 11 -77 2 -94 1
-68 -6z"/>
<path d="M2140 2430 c-23 -7 -24 -8 -6 -15 12 -5 21 -5 23 2 2 5 15 8 28 5 15
-2 25 0 25 7 0 12 -32 13 -70 1z"/>
<path d="M2255 2430 c4 -6 11 -8 16 -5 14 9 11 15 -7 15 -8 0 -12 -5 -9 -10z"/>
<path d="M1997 2410 c-48 -10 -90 -20 -93 -23 -7 -7 63 -27 93 -27 39 0 113
40 113 62 0 10 -5 10 -113 -12z"/>
<path d="M1496 2360 c-2 -3 2 -14 8 -25 8 -14 24 -21 54 -23 24 -2 42 1 42 7
0 5 16 13 35 17 47 8 55 24 13 24 -18 1 -59 2 -91 3 -33 1 -60 0 -61 -3z"/>
<path d="M18206 2261 c13 -12 154 -24 154 -13 0 10 -70 22 -128 22 -21 0 -32
-4 -26 -9z"/>
<path d="M2140 2210 c0 -5 14 -10 30 -10 17 0 30 5 30 10 0 6 -13 10 -30 10
-16 0 -30 -4 -30 -10z"/>
<path d="M1955 2180 c4 -6 11 -8 16 -5 14 9 11 15 -7 15 -8 0 -12 -5 -9 -10z"/>
<path d="M17876 2141 c-6 -10 71 -24 85 -16 5 4 9 10 9 16 0 11 -87 12 -94 0z"/>
<path d="M15666 2065 c-11 -8 -35 -18 -53 -21 -65 -12 -29 -28 68 -30 99 -1
120 -4 130 -17 3 -4 56 -10 117 -14 62 -3 112 -9 112 -13 0 -12 49 -22 71 -15
51 16 -8 41 -121 50 -102 8 -150 26 -150 54 0 19 -6 21 -77 21 -52 -1 -84 -5
-97 -15z"/>
<path d="M16511 2066 c2 -3 16 -6 29 -8 14 -2 35 -9 47 -16 12 -7 41 -12 64
-12 23 0 50 -6 58 -13 22 -18 187 -70 200 -63 5 3 20 2 33 -2 12 -5 29 -7 36
-5 21 8 2 23 -29 23 -16 0 -54 13 -85 30 -31 16 -72 32 -92 36 -21 3 -69 12
-109 20 -68 13 -162 19 -152 10z"/>
<path d="M15163 2022 c-23 -15 2 -30 62 -36 48 -5 67 -2 95 13 l34 19 -64 -2
c-36 0 -76 2 -90 7 -14 4 -30 4 -37 -1z"/>
<path d="M14926 1995 c-6 -18 30 -36 53 -27 10 4 7 10 -10 23 -29 23 -35 23
-43 4z"/>
<path d="M16160 1981 c0 -13 57 -34 71 -25 9 5 2 12 -22 20 -42 16 -49 16 -49
5z"/>
<path d="M16058 1863 c-43 -2 -78 -7 -78 -11 1 -19 28 -36 55 -34 22 2 107 22
116 27 13 9 11 25 -3 23 -7 -1 -48 -4 -90 -5z"/>
<path d="M16180 1850 c0 -5 4 -10 9 -10 6 0 13 5 16 10 3 6 -1 10 -9 10 -9 0
-16 -4 -16 -10z"/>
<path d="M16547 1853 c-4 -3 -7 -10 -7 -15 0 -12 69 -40 80 -33 20 12 9 31
-23 43 -39 14 -41 14 -50 5z"/>
<path d="M15885 1840 c3 -5 13 -10 21 -10 8 0 14 5 14 10 0 6 -9 10 -21 10
-11 0 -17 -4 -14 -10z"/>
<path d="M15772 1831 c-7 -4 -34 -6 -60 -3 -26 2 -95 -3 -152 -13 -117 -19
-133 -21 -242 -30 -43 -4 -81 -12 -85 -17 -4 -8 30 -9 118 -5 464 24 544 29
548 33 2 2 -8 8 -22 13 -14 5 -28 15 -32 20 -7 13 -54 14 -73 2z"/>
<path d="M15933 1823 c-24 -9 -13 -23 17 -23 32 0 40 14 14 24 -9 3 -16 6 -17
5 -1 0 -8 -3 -14 -6z"/>
<path d="M17395 1804 c-27 -7 -64 -13 -82 -14 -35 0 -46 -9 -33 -29 6 -11 21
-11 81 4 41 10 78 21 84 26 16 16 24 10 27 -22 l3 -31 23 32 c13 17 22 33 20
34 -13 11 -81 11 -123 0z"/>
<path d="M17812 1801 c-11 -7 -10 -10 3 -15 9 -3 25 -6 36 -6 11 0 33 -7 48
-15 26 -13 32 -13 62 3 l34 17 -70 6 c-38 3 -77 9 -85 13 -8 3 -21 2 -28 -3z"/>
<path d="M18000 1781 c0 -12 20 -27 48 -35 13 -5 22 -3 22 3 0 6 -8 11 -17 12
-11 0 -13 3 -5 6 6 2 10 9 6 14 -7 12 -54 12 -54 0z"/>
<path d="M18171 1786 c6 -6 149 -36 175 -36 8 0 14 7 14 15 0 10 -10 15 -27
15 -16 0 -59 3 -98 6 -38 4 -67 4 -64 0z"/>
<path d="M17202 1768 c5 -15 37 -18 41 -3 1 6 -9 12 -22 13 -16 3 -22 -1 -19
-10z"/>
<path d="M16877 1763 c-16 -16 -4 -24 30 -21 48 4 57 28 11 28 -19 0 -38 -3
-41 -7z"/>
<path d="M16975 1730 c-3 -5 1 -10 9 -10 9 0 16 5 16 10 0 6 -4 10 -9 10 -6 0
-13 -4 -16 -10z"/>
<path d="M16910 1711 c0 -11 26 -22 34 -14 3 3 3 10 0 14 -7 12 -34 11 -34 0z"/>
<path d="M16960 1700 c0 -5 7 -7 15 -4 8 4 15 8 15 10 0 2 -7 4 -15 4 -8 0
-15 -4 -15 -10z"/>
<path d="M18335 1520 c-3 -5 1 -10 9 -10 9 0 16 5 16 10 0 6 -4 10 -9 10 -6 0
-13 -4 -16 -10z"/>
<path d="M270 870 c-12 -8 -10 -10 8 -10 13 0 20 4 17 10 -7 12 -6 12 -25 0z"/>
<path d="M20 800 c0 -5 5 -10 10 -10 6 0 10 5 10 10 0 6 -4 10 -10 10 -5 0
-10 -4 -10 -10z"/>
<path d="M2220 660 c0 -5 7 -10 16 -10 8 0 12 5 9 10 -3 6 -10 10 -16 10 -5 0
-9 -4 -9 -10z"/>
<path d="M17482 563 c2 -10 14 -19 26 -21 21 -3 22 -1 12 17 -13 26 -43 28
-38 4z"/>
<path d="M2130 540 c-29 -15 -32 -20 -18 -25 11 -4 24 0 33 9 18 17 75 22 75
6 0 -5 11 -10 25 -10 15 0 25 6 25 14 0 8 -8 14 -17 14 -10 -1 -34 1 -53 5
-25 4 -45 1 -70 -13z"/>
<path d="M17097 390 c4 -14 11 -19 23 -15 10 3 24 0 31 -8 8 -8 21 -12 31 -9
15 3 13 7 -9 28 -14 13 -38 24 -54 24 -22 0 -26 -4 -22 -20z"/>
<path d="M17346 353 c-11 -11 -6 -23 9 -23 8 0 15 4 15 9 0 13 -16 22 -24 14z"/>
<path d="M17400 321 c0 -5 9 -13 20 -16 15 -5 19 -12 14 -29 -4 -17 2 -25 28
-39 84 -44 113 -63 113 -73 0 -7 11 -21 24 -31 32 -26 23 -54 -16 -48 -15 2
-51 6 -80 10 -43 6 -55 4 -70 -10 -13 -13 -14 -20 -5 -23 6 -2 12 -10 12 -18
0 -7 11 -20 23 -29 21 -13 75 -15 391 -13 l366 3 -30 37 c-22 27 -41 39 -68
43 -54 9 -155 36 -167 45 -12 9 -166 53 -250 71 -71 15 -167 60 -213 100 -32
28 -92 41 -92 20z"/>
</g>
</svg>
